<?xml version="1.0" encoding="UTF-8"?>
<svg id="Layer_1" xmlns="http://www.w3.org/2000/svg" version="1.1" viewBox="0 0 515 550" xmlns:c2pa="http://c2pa.org/manifest"><metadata><c2pa:manifest>AABtPmp1bWIAAAAeanVtZGMycGEAEQAQgAAAqgA4m3EDYzJwYQAAADU9anVtYgAAAEdqdW1kYzJtYQARABCAAACqADibcQN1cm46YzJwYTo1OWE5MDRmNC05ZmZjLTQwZmMtYjBlNy04ZTI4NWE5YjQ0NTQAAAAC6Wp1bWIAAAApanVtZGMyYXMAEQAQgAAAqgA4m3EDYzJwYS5hc3NlcnRpb25zAAAAAfVqdW1iAAAAQWp1bWRjYm9yABEAEIAAAKoAOJtxE2MycGEuYWN0aW9ucy52MgAAAAAYYzJzaAXQFOZ8giV0AM96DhCgOokAAAGsY2JvcqJnYWN0aW9uc4GlZmFjdGlvbmxjMnBhLmNyZWF0ZWRkd2hlbsB4GzIwMjYtMDktMTlUMTE6MTM6NDEuOTEzMDUxWm1zb2Z0d2FyZUFnZW50cEZpcmVmbHkgVmVjdG9yIDRqcGFyYW1ldGVyc6J4G2NvbS5hZG9iZS5kaWdpdGFsU291cmNlVHlwZXhGaHR0cDovL2N2LmlwdGMub3JnL25ld3Njb2Rlcy9kaWdpdGFsc291cmNldHlwZS90cmFpbmVkQWxnb3JpdGhtaWNNZWRpYXFjb20uYWRvYmUuZ2VuQWlJZHgkZDAyNTVjYjEtMjRiMC00N2JjLWE1MjQtNDBhMTEyNmUyYjNmcWRpZ2l0YWxTb3VyY2VUeXBleEZodHRwOi8vY3YuaXB0Yy5vcmcvbmV3c2NvZGVzL2RpZ2l0YWxzb3VyY2V0eXBlL3RyYWluZWRBbGdvcml0aG1pY01lZGlhaXRlbXBsYXRlc4GiZmFjdGlvbmEqcnRlbXBsYXRlUGFyYW1ldGVyc6F1Y29tLmFkb2JlLmFwcEVuZm9yY2Vk9QAAAMNqdW1iAAAAQGp1bWRjYm9yABEAEIAAAKoAOJtxE2MycGEuaGFzaC5kYXRhAAAAABhjMnNogj/WXjmEdRx8oqcekOG1dwAAAHtjYm9ypWpleGNsdXNpb25zgaJlc3RhcnQYIWZsZW5ndGgZNW9kbmFtZW5qdW1iZiBtYW5pZmVzdGNhbGdmc2hhMjU2ZGhhc2hYIO4A+mIMkkI/6OF6BDPYIeFaF6fvv6Yq7Yd3oNtftlOjY3BhZEgAAAAAAAAAAAAAAfVqdW1iAAAAJ2p1bWRjMmNsABEAEIAAAKoAOJtxA2MycGEuY2xhaW0udjIAAAABxmNib3Kmamluc3RhbmNlSUR4LHhtcDppaWQ6MTUxNjdmYWUtZTUxMS00OTJjLTg5ZmQtMDUzNmU4NmZiYTFjdGNsYWltX2dlbmVyYXRvcl9pbmZvomRuYW1lbUFkb2JlIEZpcmVmbHl3b3JnLmNvbnRlbnRhdXRoLmMycGFfcnNmMC44Ni4xaXNpZ25hdHVyZXhNc2VsZiNqdW1iZj0vYzJwYS91cm46YzJwYTo1OWE5MDRmNC05ZmZjLTQwZmMtYjBlNy04ZTI4NWE5YjQ0NTQvYzJwYS5zaWduYXR1cmVyY3JlYXRlZF9hc3NlcnRpb25zgaJjdXJseClzZWxmI2p1bWJmPWMycGEuYXNzZXJ0aW9ucy9jMnBhLmhhc2guZGF0YWRoYXNoWCCc259TaCAy9jXjKkA5AEnh9EGro1fdb5c8UzcOrWr/v3NnYXRoZXJlZF9hc3NlcnRpb25zgaJjdXJseCpzZWxmI2p1bWJmPWMycGEuYXNzZXJ0aW9ucy9jMnBhLmFjdGlvbnMudjJkaGFzaFgghLgw2EgZTr6+pGXlRcxbf1tJB7/KObhQcocw73engZJjYWxnZnNoYTI1NgAAMBBqdW1iAAAAKGp1bWRjMmNzABEAEIAAAKoAOJtxA2MycGEuc2lnbmF0dXJlAAAAL+BjYm9y0oRZDRuiATgkGCGCWQanMIIGozCCBIugAwIBAgIUDmr8FKDzKXhm/XQmRsCCL6pq1uswDQYJKoZIhvcNAQELBQAwdTELMAkGA1UEBhMCVVMxIzAhBgNVBAoTGkFkb2JlIFN5c3RlbXMgSW5jb3Jwb3JhdGVkMR0wGwYDVQQLExRBZG9iZSBUcnVzdCBTZXJ2aWNlczEiMCAGA1UEAxMZQWRvYmUgUHJvZHVjdCBTZXJ2aWNlcyBHNDAeFw0yNjA4MjAxNjM0MTZaFw0yNzA4MjAxNjM0MTZaMIGyMRowGAYDVQQDDBFBZG9iZSBJbGx1c3RyYXRvcjEoMCYGA1UECwwfQ29udGVudCBBdXRoZW50aWNpdHkgSW5pdGlhdGl2ZTETMBEGA1UECgwKQWRvYmUgSW5jLjERMA8GA1UEBwwIU2FuIEpvc2UxEzARBgNVBAgMCkNhbGlmb3JuaWExCzAJBgNVBAYTAlVTMSAwHgYJKoZIhvcNAQkBFhFjYWktb3BzQGFkb2JlLmNvbTCCASIwDQYJKoZIhvcNAQEBBQADggEPADCCAQoCggEBANokiSVjjpV8aRWNKu+rcALDOzUGfQZ4TAiDgdAGm9weHHd7WrYZgUyXww0jUH4L/oQk7kge3bTJt/OUrs4H45vDdaKQd6rIfEh0IWdS0CkimxaacnIHJgY2YqGQSspJLXRNJUR1QmTZAhR2sipM1IURisN+U7Lw/t5JeTR7MsiQ+UMKQwB85gJJUj/P1IG3tljmui1JJlQAuuQzaeZeynIVYGhH1w8kgCpqQnJpCqaksXl1RWa3lFU1K4avIDmGJhGI3J3gTkB+qCKGT7h0p/WjCsRKD9qq+4UwipChSQdK/CiIRB5U1dG2I0maEH7CcYr0sKUkqcueBdcxazhKa88CAwEAAaOCAeswggHnMA4GA1UdDwEB/wQEAwIHgDAqBgNVHSUEIzAhBgkqhkiG9y8BAQwGCisGAQQBg+heAgEGCCsGAQUFBwMEMB0GA1UdDgQWBBQunfsQtEpnOejuivgOBCc/BmimZDAfBgNVHSMEGDAWgBTQrUKK8HoUByXGl8BDqCOF6LUtIzCBjgYDVR0gBIGGMIGDMIGABgkqhkiG9y8BAgMwczBxBggrBgEFBQcCAjBlDGNZb3UgYXJlIG5vdCBwZXJtaXR0ZWQgdG8gdXNlIHRoaXMgTGljZW5zZSBDZXJ0aWZpY2F0ZSBleGNlcHQgYXMgcGVybWl0dGVkIGJ5IHRoZSBsaWNlbnNlIGFncmVlbWVudC4wDAYDVR0TAQH/BAIwADCBgAYIKwYBBQUHAQEEdDByMCgGCCsGAQUFBzABhhxodHRwOi8vb2NzcC5vbmUuZGlnaWNlcnQuY29tMEYGCCsGAQUFBzAChjpodHRwOi8vY2FjZXJ0cy5vbmUuZGlnaWNlcnQuY29tL0Fkb2JlUHJvZHVjdFNlcnZpY2VzRzQuY3J0MEcGA1UdHwRAMD4wPKA6oDiGNmh0dHA6Ly9jcmwub25lLmRpZ2ljZXJ0LmNvbS9BZG9iZVByb2R1Y3RTZXJ2aWNlc0c0LmNybDANBgkqhkiG9w0BAQsFAAOCAgEAFJK+2Fb3/UAuBJ8I/t7/djCK/MFJThIX5AWrm6Xy8p/m9tzvScX+iOaX+AJWqJWtZ79C7gOwMBZutTjRFvwNpoR1RSjH5VnAY0FgU2Z71m9BSNn8yR3usxGu4E4Lo81HAs5uM7k1MqVzJr8WN6nj1y6qw8dMGerKeI+mIEsPFcwrjClOFXw+ib+B6X6ianw42UJfBwFsQLHTwQaFiGe/c/5Nn+6F+2MQkALo4FgDBXb78xO0lyRyddpdSR3w5f2mJi7T6LiqiOsJaPpBylzYoLU+Cz2cpgIixi9fz/CNJhpCnJYY2JHylQGwQL0W2/EK0I7gCS8wb007tYfTdW37Zt/pI6sC9tz0PBPoKajmIEYYP/BP+ZPFIhROUak/QLKZDSUYgZQIHG/8At4ZA6GGW6CPmda5Z5mpTNPEGWVHb+ntvS4qBjF7Wt1SKepng8c7xF3wgj3GAGYTTMi+6NElqIbAV7tny3E3p1PmJFvAiv/eB8LQ9HfOiKYn7WE+zIxOUriD6De+ISs+gIReaeeE0wnU4dEbzPtkdyGnOr68cDEDZUU1IlryJPznp4ojKFBisLNbl/lsH3liUIQlkR9kcvmavEhQyrhPaZp9RDiaS3cqJ1x2sVlNTQmwKUJObCReE6LcfARPseb4Ynv5J4/nC7a3Cj7LFWJrZtAdQh0FwzRZBmcwggZjMIIES6ADAgECAhAO4brfrXiubya9USWYB4gvMA0GCSqGSIb3DQEBCwUAMGwxCzAJBgNVBAYTAlVTMSMwIQYDVQQKExpBZG9iZSBTeXN0ZW1zIEluY29ycG9yYXRlZDEdMBsGA1UECxMUQWRvYmUgVHJ1c3QgU2VydmljZXMxGTAXBgNVBAMTEEFkb2JlIFJvb3QgQ0EgRzIwHhcNMjQxMTIwMDAwMDAwWhcNNDQxMTE5MjM1OTU5WjB1MQswCQYDVQQGEwJVUzEjMCEGA1UEChMaQWRvYmUgU3lzdGVtcyBJbmNvcnBvcmF0ZWQxHTAbBgNVBAsTFEFkb2JlIFRydXN0IFNlcnZpY2VzMSIwIAYDVQQDExlBZG9iZSBQcm9kdWN0IFNlcnZpY2VzIEc0MIICIjANBgkqhkiG9w0BAQEFAAOCAg8AMIICCgKCAgEArEX4gLFYSLzO6YKZ4sKJTtqzpEMSSAH/LqcVd5x4wBALlp/ILNd5bJAmiU7sKaLg3Dm+17F0PfNULAbtxQCfeQes1os22QZL6qnuMIbdCm8BKR1H66M6nJaI4H+IGXJZH7x2MWmO/c3fbe1HgOif3N5nbf4Zy2WZ34Pkq8jXMpB1Zgcq0zEUlpEpfCt5s4TiK3iVWg99jzje9703ty4mUXKPZW7c0uuvVGAQX6N1QAATKdOEYpVWhQobVpua6+YurfguW4BxEgwTRMTwS4Yw2+iZMsBgjZzgxJfGGsmpOGVZGj4yxeL4nlL9Viyb6G93gWXC6z6oXhwD7VAQM0yKJ3E9MyOLc5c0CGycVY0UUG3RHNM1IWw5A5sMpOj3RgG8R9PokaqPCSvuER+PzuBw1VeTOglIcQAMniQ2cm7muB5/Yu9inh0bUSlCyQYytlqrnmANxspWbiudjkz3eUewbgMS6x//diKF0851zSwOCYMMmK5BHoaVvV8rhJ7Qn2+iZdJJbWncgK/dNSl4p38ZFvcKEMWkx8cO/RSN8JGH155EFcUYJaQHoNS9IzPq4AcWkO5eJHJ6ZGOOzMlNbDHSnocHIx229FCGED8l+ARwsS1RxvkxOgKv4PAg7hlqg1qS0m8k5Ae0bRNBsCuEiD7/flStNtU9tmDunGZCeNOBs+8CAwEAAaOB9zCB9DASBgNVHRMBAf8ECDAGAQH/AgEAMDUGA1UdHwQuMCwwKqAooCaGJGh0dHA6Ly9jcmwuYWRvYmUuY29tL2Fkb2Jlcm9vdGcyLmNybDAOBgNVHQ8BAf8EBAMCAYYwVwYDVR0gBFAwTjBMBgkqhkiG9y8BAgMwPzA9BggrBgEFBQcCARYxaHR0cHM6Ly93d3cuYWRvYmUuY29tL21pc2MvcGtpL3Byb2Rfc3ZjZV9jcHMuaHRtbDAdBgNVHQ4EFgQU0K1CivB6FAclxpfAQ6gjhei1LSMwHwYDVR0jBBgwFoAUphzhbVQkTKiPSHK/bqmM1eTsMdQwDQYJKoZIhvcNAQELBQADggIBAJGWqENTTs5YuaFrb5im1gQwWve0QT2+EEuWeU3uh4pFb1LxRUQYlQ3AafDgczLYgh4YZzqmfaH6zplXrEnwJ2OAxPxmnk61o017k7+offsQROwPE3v2VQOiVYCc70ZPUufV9PbnPuf6KVI9DkQxTMqxNGyWokxVB5M5hY1hfzT54V6hPz/Szo1kuzGh3DiX6kFF3K8jmDaD++DFNg9CN2MF6ogg8Fl9bk8jpYnB6wlbrm1dqp3UY2aSQM+U7dlxLyqPRM43GkJ+sOyNOb46lf2TZi/KWO7P8YuyybD2GnDA5r2BIg6FWtHWFIKhaSsdDUpZ5p509ESLQB2VDQ1cKU+Z/sDEJk3x7h+Q2i9249fJOcjjec3w8UyxSbJJTFv1G3JY4fzsq4mMFWSBfY9shG8LGdDpGvMSUxvMp/D+gNGzw+yr+abc6pXEYTwmoQfvKXeYtrs5ASTpsAyOoSg5GTG50ZN/Rt7JXvYi7kyWSUhn0vcntcsg5uZRGBWEl/OYF+5svB9EabVppJx97IIv/fxPSMq0qpiSUOLUDdVtY8FIyfywJxLtw6ttEtC2bVjqoRL7MTku+38eexUB4HVxpC7E/4VuVztrjFBvqxGbLoWZVYVurALXLN5dtKj2SLb7N3c57ODJ82ZaCgSPczCVtBcw2L1WryQD0d/itrIuzbx+o2dzaWdUc3QyoWl0c3RUb2tlbnOBoWN2YWxZDlAwgg5MBgkqhkiG9w0BBwKggg49MIIOOQIBAzEPMA0GCWCGSAFlAwQCAQUAMIGCBgsqhkiG9w0BCRABBKBzBHEwbwIBAQYJYIZIAYb9bAcBMDEwDQYJYIZIAWUDBAIBBQAEIB4MyLI6lprwsXFCyL/IzijkHTq6J9jnciGUNCrZN5uGAhEAsqKYP780CkxARhJuejaOfBgPMjAyNjA5MTkxMTEzNDJaAgg0iofjXTdddaCCC9owggUeMIIDBqADAgECAhADYpL+b9qxJLpvQsseCRgWMA0GCSqGSIb3DQEBCwUAMGkxCzAJBgNVBAYTAlVTMRcwFQYDVQQKEw5EaWdpQ2VydCwgSW5jLjFBMD8GA1UEAxM4RGlnaUNlcnQgVHJ1c3RlZCBHNCBUaW1lU3RhbXBpbmcgUlNBNDA5NiBTSEEyNTYgMjAyNSBDQTEwHhcNMjYwODA1MDAwMDAwWhcNMzcxMTA0MjM1OTU5WjBfMQswCQYDVQQGEwJVUzEXMBUGA1UEChMORGlnaUNlcnQsIEluYy4xNzA1BgNVBAMTLkFkb2JlIFNIQTI1NiBFQ0MyNTYgVGltZXN0YW1wIFJlc3BvbmRlciAyMDI2IDEwWTATBgcqhkjOPQIBBggqhkjOPQMBBwNCAASzFO3J88vcWKQeZ3eOcX3KdXoiCDK0ZgJcalds3840+dEM28WV/oLt4T++qYlCoQ/qxlHQXXwjzn+8ruUjL8wEo4IBlTCCAZEwDAYDVR0TAQH/BAIwADAdBgNVHQ4EFgQUoZ8/6qjq6oj7ODmRMYNVxx6xYQYwHwYDVR0jBBgwFoAU729TSunkBnx6yuKQVvYv1Ensy04wDgYDVR0PAQH/BAQDAgeAMBYGA1UdJQEB/wQMMAoGCCsGAQUFBwMIMIGVBggrBgEFBQcBAQSBiDCBhTAkBggrBgEFBQcwAYYYaHR0cDovL29jc3AuZGlnaWNlcnQuY29tMF0GCCsGAQUFBzAChlFodHRwOi8vY2FjZXJ0cy5kaWdpY2VydC5jb20vRGlnaUNlcnRUcnVzdGVkRzRUaW1lU3RhbXBpbmdSU0E0MDk2U0hBMjU2MjAyNUNBMS5jcnQwXwYDVR0fBFgwVjBUoFKgUIZOaHR0cDovL2NybDMuZGlnaWNlcnQuY29tL0RpZ2lDZXJ0VHJ1c3RlZEc0VGltZVN0YW1waW5nUlNBNDA5NlNIQTI1NjIwMjVDQTEuY3JsMCAGA1UdIAQZMBcwCAYGZ4EMAQQCMAsGCWCGSAGG/WwHATANBgkqhkiG9w0BAQsFAAOCAgEAshb9hLwGuuw76cOfW/HsV3LmYZnItVSjaxxp1wOl5Zh2KF9f6mkw/6/OVAv3e0dbOvOcRyoNmsXlC2t1XJ48SI8t64XAHw5mQowcm2LndS3LL9Z4YB1A4S+7z0F3iD24rW6c5xScq8idPHlMW0O9ZpHNhBFRW9LFtR3/o5VgaTapO5kU8khcWShNxPPt7sC6J04Ys7Vzcv2idy8MnqSAzeE4hS0urKvKN8Mwbt8kFrakfb4UkHTUSsUP+IsAo5AuqrHmYyJ/ansc1RYtcmpjzGqCwoxa5spFbDT7jQFG8CtgK7T3D6QXE8WoAquCyr0rzfsWjfiPnTJ/TdYt3Lh9phW468AqTG8mNBl+n1XX5KWocQMIdO0Npc3nA6K7HTnwDNJekqVGsRUDXcQtT93Skqd3V36tcs4Z+1iX5x74TtShz+D6/V26Em0l1GxrlJTJuEykey9C5zTopxMQyLN9qxoPFc3T7588+EvgbEFchumQJQaG8nzIVcEwtSOYUmkX1wpooC3xkHwHd89r/d9Ku+oB3kLDUmTnuXYQjslDWrK6d34Bs8Dc67oZQr9iugwVpkNFtShMFzp9V5pXnClb8t4Xju7Jp4bgzK60Hgr+lvdhnxcHqBvnQ5WGWO4DM6GzdPnBOalz0vmf0ygbNNzceboREkf8l8ojE6bE9TiCGsYwgga0MIIEnKADAgECAhANx6xXBf8hmS5AQyIMOkmGMA0GCSqGSIb3DQEBCwUAMGIxCzAJBgNVBAYTAlVTMRUwEwYDVQQKEwxEaWdpQ2VydCBJbmMxGTAXBgNVBAsTEHd3dy5kaWdpY2VydC5jb20xITAfBgNVBAMTGERpZ2lDZXJ0IFRydXN0ZWQgUm9vdCBHNDAeFw0yNTA1MDcwMDAwMDBaFw0zODAxMTQyMzU5NTlaMGkxCzAJBgNVBAYTAlVTMRcwFQYDVQQKEw5EaWdpQ2VydCwgSW5jLjFBMD8GA1UEAxM4RGlnaUNlcnQgVHJ1c3RlZCBHNCBUaW1lU3RhbXBpbmcgUlNBNDA5NiBTSEEyNTYgMjAyNSBDQTEwggIiMA0GCSqGSIb3DQEBAQUAA4ICDwAwggIKAoICAQC0eDHTCphBcr48RsAcrHXbo0ZodLRRF51NrY0NlLWZloMsVO1DahGPNRcybEKq+RuwOnPhof6pvF4uGjwjqNjfEvUi6wuim5bap+0lgloM2zX4kftn5B1IpYzTqpyFQ/4Bt0mAxAHeHYNnQxqXmRinvuNgxVBdJkf77S2uPoCj7GH8BLuxBG5AvftBdsOECS1UkxBvMgEdgkFiDNYiOTx4OtiFcMSkqTtF2hfQz3zQSku2Ws3IfDReb6e3mmdglTcaarps0wjUjsZvkgFkriK9tUKJm/s80FiocSk1VYLZlDwFt+cVFBURJg6zMUjZa/zbCclF83bRVFLeGkuAhHiGPMvSGmhgaTzVyhYn4p0+8y9oHRaQT/aofEnS5xLrfxnGpTXiUOeSLsJygoLPp66bkDX1ZlAeSpQl92QOMeRxykvq6gbylsXQskBBBnGy3tW/AMOMCZIVNSaz7BX8VtYGqLt9MmeOreGPRdtBx3yGOP+rx3rKWDEJlIqLXvJWnY0v5ydPpOjL6s36czwzsucuoKs7Yk/ehb//Wx+5kMqIMRvUBDx6z1ev+7psNOdgJMoiwOrUG2ZdSoQbU2rMkpLiQ6bGRinZbI4OLu9BMIFm1UUl9VnePs6BaaeEWvjJSjNm2qA+sdFUeEY0qVjPKOWug/G6X5uAiynM7Bu2ayBjUwIDAQABo4IBXTCCAVkwEgYDVR0TAQH/BAgwBgEB/wIBADAdBgNVHQ4EFgQU729TSunkBnx6yuKQVvYv1Ensy04wHwYDVR0jBBgwFoAU7NfjgtJxXWRM3y5nP+e6mK4cD08wDgYDVR0PAQH/BAQDAgGGMBMGA1UdJQQMMAoGCCsGAQUFBwMIMHcGCCsGAQUFBwEBBGswaTAkBggrBgEFBQcwAYYYaHR0cDovL29jc3AuZGlnaWNlcnQuY29tMEEGCCsGAQUFBzAChjVodHRwOi8vY2FjZXJ0cy5kaWdpY2VydC5jb20vRGlnaUNlcnRUcnVzdGVkUm9vdEc0LmNydDBDBgNVHR8EPDA6MDigNqA0hjJodHRwOi8vY3JsMy5kaWdpY2VydC5jb20vRGlnaUNlcnRUcnVzdGVkUm9vdEc0LmNybDAgBgNVHSAEGTAXMAgGBmeBDAEEAjALBglghkgBhv1sBwEwDQYJKoZIhvcNAQELBQADggIBABfO+xaAHP4HPRF2cTC9vgvItTSmf83Qh8WIGjB/T8ObXAZz8OjuhUxjaaFdleMM0lBryPTQM2qEJPe36zwbSI/mS83afsl3YTj+IQhQE7jU/kXjjytJgnn0hvrV6hqWGd3rLAUt6vJy9lMDPjTLxLgXf9r5nWMQwr8Myb9rEVKChHyfpzee5kH0F8HABBgr0UdqirZ7bowe9Vj2AIMD8liyrukZ2iA/wdG2th9y1IsA0QF8dTXqvcnTmpfeQh35k5zOCPmSNq1UH410ANVko43+Cdmu4y81hjajV/gxdEkMx1NKU4uHQcKfZxAvBAKqMVuqte69M9J6A47OvgRaPs+2ykgcGV00TYr2Lr3ty9qIijanrUR3anzEwlvzZiiyfTPjLbnFRsjsYg39OlV8cipDoq7+qNNjqFzeGxcytL5TTLL4ZaoBdqbhOhZ3ZRDUphPvSRmMThi0vw9vODRzW6AxnJll38F0cuJG7uEBYTptMSbhdhGQDpOXgpIUsWTjd6xpR6oaQf/DJbg3s6KCLPAlZ66RzIg9sC+NJpud/v4+7RWsWCiKi9EOLLHfMR2ZyJ/+xhCx9yHbxtl5TPau1j/1MIDpMPx0LckTetiSuEtQvLsNz3Qbp7wGWqbIiOWCnb5WqxL3/BAPvIXKUjPSxyZsq8WhbaM2tszWkPZPubdcMYIBvjCCAboCAQEwfTBpMQswCQYDVQQGEwJVUzEXMBUGA1UEChMORGlnaUNlcnQsIEluYy4xQTA/BgNVBAMTOERpZ2lDZXJ0IFRydXN0ZWQgRzQgVGltZVN0YW1waW5nIFJTQTQwOTYgU0hBMjU2IDIwMjUgQ0ExAhADYpL+b9qxJLpvQsseCRgWMA0GCWCGSAFlAwQCAQUAoIHRMBoGCSqGSIb3DQEJAzENBgsqhkiG9w0BCRABBDAcBgkqhkiG9w0BCQUxDxcNMjYwOTE5MTExMzQyWjArBgsqhkiG9w0BCRACDDEcMBowGDAWBBSiHCGqNYU6fpWMZ6uopm6Q8kfZxDAvBgkqhkiG9w0BCQQxIgQgkRPMDwdafu2Hni3G4nS6mUfpldfQ4f35D+1L+Ld+NQYwNwYLKoZIhvcNAQkQAi8xKDAmMCQwIgQggIlstwcBstnDmn9I4JAjM65m1aTW1vzIHcazFbdf5wUwCgYIKoZIzj0EAwIERzBFAiBGdqmW68mhyMeiaj+Zr1jExmcIOx9GFYzPFnVOi9YgjgIhAJCZMTrSmrxoGeyeOAVhVFF3uz/cCx9uWJy1fXLIneFFZXJWYWxzoWhvY3NwVmFsc4FZAtswggLXCgEAoIIC0DCCAswGCSsGAQUFBzABAQSCAr0wggK5MIGiohYEFNCtQorwehQHJcaXwEOoI4XotS0jGA8yMDI2MDkxNjE2NDE1OFowdzB1ME0wCQYFKw4DAhoFAAQUiu+yARBva2UVTcGjt1Gpi3OSyxYEFNCtQorwehQHJcaXwEOoI4XotS0jAhQOavwUoPMpeGb9dCZGwIIvqmrW64AAGA8yMDI2MDkxNjE2NDE1OFqgERgPMjAyNjA5MjMxNjQxNThaMA0GCSqGSIb3DQEBCwUAA4ICAQAE9LLK8ptHx2zg+Atd4o4WuB8bxBRH5z8j5z71QRTMbsEHs6pz+x9ZioLAp0tXdZy/3XMDB9bDl/iL8qsSH+5m9r1FYU64QVdeN7XowAmgf+9JOOEdE8peAf+7RkxsTnanL41LnYc7bdrY8zo5DnGFe6ojzqtgY2VOSHiSzEcUeXCp3L5BGeXo4d+2HVwA6jejm8uMPlI1Pj74YDotDFW71VJtC0M3fd0RPDzuC4MNQq3Sda/ygbYUgw8xwKmlVU4m5OvWsPTY0bM6sgBk4NyK4gLDM44OyNxLzAtfzaG7GI3rixK3LjaxKeDi9CKHzbe/tWqC0+PoJtRAb6EWM506+BJGlWgQDL5ORBYDvshzovY6ZH7hUxunFKN7rE9DsskH2PJjx5gGcpJmOhQI9cgK57lXY5snNzKdKeCRgDETh2KKm0rkMv/NxoxcQMpEMEMy/F7feu1SOlkuEIULZEUAsjt4dMEBz/vgEXJLym8i2UDzUuaKEbLicaQ4gcbVX8M7u8925XX97t3103wDPWioNIe/J02+r/0T7dLU/vVETbQEWZ8vaygYO6fdrqLQjh+/dfgQivPZcGNntKlPPT7+kFQi3Mp5xLFhrjb6RV/HizXqB4OaQBYHgPfHxGpGRXBMEo32xiAQJfdTySYtrTmdaX0T8iWo/A/wFUwNBRpn+mNwYWRZEFEAAAAAAAAAAAAAAAAAAAAAAAAAAAAAAAAAAAAAAAAAAAAAAAAAAAAAAAAAAAAAAAAAAAAAAAAAAAAAAAAAAAAAAAAAAAAAAAAAAAAAAAAAAAAAAAAAAAAAAAAAAAAAAAAAAAAAAAAAAAAAAAAAAAAAAAAAAAAAAAAAAAAAAAAAAAAAAAAAAAAAAAAAAAAAAAAAAAAAAAAAAAAAAAAAAAAAAAAAAAAAAAAAAAAAAAAAAAAAAAAAAAAAAAAAAAAAAAAAAAAAAAAAAAAAAAAAAAAAAAAAAAAAAAAAAAAAAAAAAAAAAAAAAAAAAAAAAAAAAAAAAAAAAAAAAAAAAAAAAAAAAAAAAAAAAAAAAAAAAAAAAAAAAAAAAAAAAAAAAAAAAAAAAAAAAAAAAAAAAAAAAAAAAAAAAAAAAAAAAAAAAAAAAAAAAAAAAAAAAAAAAAAAAAAAAAAAAAAAAAAAAAAAAAAAAAAAAAAAAAAAAAAAAAAAAAAAAAAAAAAAAAAAAAAAAAAAAAAAAAAAAAAAAAAAAAAAAAAAAAAAAAAAAAAAAAAAAAAAAAAAAAAAAAAAAAAAAAAAAAAAAAAAAAAAAAAAAAAAAAAAAAAAAAAAAAAAAAAAAAAAAAAAAAAAAAAAAAAAAAAAAAAAAAAAAAAAAAAAAAAAAAAAAAAAAAAAAAAAAAAAAAAAAAAAAAAAAAAAAAAAAAAAAAAAAAAAAAAAAAAAAAAAAAAAAAAAAAAAAAAAAAAAAAAAAAAAAAAAAAAAAAAAAAAAAAAAAAAAAAAAAAAAAAAAAAAAAAAAAAAAAAAAAAAAAAAAAAAAAAAAAAAAAAAAAAAAAAAAAAAAAAAAAAAAAAAAAAAAAAAAAAAAAAAAAAAAAAAAAAAAAAAAAAAAAAAAAAAAAAAAAAAAAAAAAAAAAAAAAAAAAAAAAAAAAAAAAAAAAAAAAAAAAAAAAAAAAAAAAAAAAAAAAAAAAAAAAAAAAAAAAAAAAAAAAAAAAAAAAAAAAAAAAAAAAAAAAAAAAAAAAAAAAAAAAAAAAAAAAAAAAAAAAAAAAAAAAAAAAAAAAAAAAAAAAAAAAAAAAAAAAAAAAAAAAAAAAAAAAAAAAAAAAAAAAAAAAAAAAAAAAAAAAAAAAAAAAAAAAAAAAAAAAAAAAAAAAAAAAAAAAAAAAAAAAAAAAAAAAAAAAAAAAAAAAAAAAAAAAAAAAAAAAAAAAAAAAAAAAAAAAAAAAAAAAAAAAAAAAAAAAAAAAAAAAAAAAAAAAAAAAAAAAAAAAAAAAAAAAAAAAAAAAAAAAAAAAAAAAAAAAAAAAAAAAAAAAAAAAAAAAAAAAAAAAAAAAAAAAAAAAAAAAAAAAAAAAAAAAAAAAAAAAAAAAAAAAAAAAAAAAAAAAAAAAAAAAAAAAAAAAAAAAAAAAAAAAAAAAAAAAAAAAAAAAAAAAAAAAAAAAAAAAAAAAAAAAAAAAAAAAAAAAAAAAAAAAAAAAAAAAAAAAAAAAAAAAAAAAAAAAAAAAAAAAAAAAAAAAAAAAAAAAAAAAAAAAAAAAAAAAAAAAAAAAAAAAAAAAAAAAAAAAAAAAAAAAAAAAAAAAAAAAAAAAAAAAAAAAAAAAAAAAAAAAAAAAAAAAAAAAAAAAAAAAAAAAAAAAAAAAAAAAAAAAAAAAAAAAAAAAAAAAAAAAAAAAAAAAAAAAAAAAAAAAAAAAAAAAAAAAAAAAAAAAAAAAAAAAAAAAAAAAAAAAAAAAAAAAAAAAAAAAAAAAAAAAAAAAAAAAAAAAAAAAAAAAAAAAAAAAAAAAAAAAAAAAAAAAAAAAAAAAAAAAAAAAAAAAAAAAAAAAAAAAAAAAAAAAAAAAAAAAAAAAAAAAAAAAAAAAAAAAAAAAAAAAAAAAAAAAAAAAAAAAAAAAAAAAAAAAAAAAAAAAAAAAAAAAAAAAAAAAAAAAAAAAAAAAAAAAAAAAAAAAAAAAAAAAAAAAAAAAAAAAAAAAAAAAAAAAAAAAAAAAAAAAAAAAAAAAAAAAAAAAAAAAAAAAAAAAAAAAAAAAAAAAAAAAAAAAAAAAAAAAAAAAAAAAAAAAAAAAAAAAAAAAAAAAAAAAAAAAAAAAAAAAAAAAAAAAAAAAAAAAAAAAAAAAAAAAAAAAAAAAAAAAAAAAAAAAAAAAAAAAAAAAAAAAAAAAAAAAAAAAAAAAAAAAAAAAAAAAAAAAAAAAAAAAAAAAAAAAAAAAAAAAAAAAAAAAAAAAAAAAAAAAAAAAAAAAAAAAAAAAAAAAAAAAAAAAAAAAAAAAAAAAAAAAAAAAAAAAAAAAAAAAAAAAAAAAAAAAAAAAAAAAAAAAAAAAAAAAAAAAAAAAAAAAAAAAAAAAAAAAAAAAAAAAAAAAAAAAAAAAAAAAAAAAAAAAAAAAAAAAAAAAAAAAAAAAAAAAAAAAAAAAAAAAAAAAAAAAAAAAAAAAAAAAAAAAAAAAAAAAAAAAAAAAAAAAAAAAAAAAAAAAAAAAAAAAAAAAAAAAAAAAAAAAAAAAAAAAAAAAAAAAAAAAAAAAAAAAAAAAAAAAAAAAAAAAAAAAAAAAAAAAAAAAAAAAAAAAAAAAAAAAAAAAAAAAAAAAAAAAAAAAAAAAAAAAAAAAAAAAAAAAAAAAAAAAAAAAAAAAAAAAAAAAAAAAAAAAAAAAAAAAAAAAAAAAAAAAAAAAAAAAAAAAAAAAAAAAAAAAAAAAAAAAAAAAAAAAAAAAAAAAAAAAAAAAAAAAAAAAAAAAAAAAAAAAAAAAAAAAAAAAAAAAAAAAAAAAAAAAAAAAAAAAAAAAAAAAAAAAAAAAAAAAAAAAAAAAAAAAAAAAAAAAAAAAAAAAAAAAAAAAAAAAAAAAAAAAAAAAAAAAAAAAAAAAAAAAAAAAAAAAAAAAAAAAAAAAAAAAAAAAAAAAAAAAAAAAAAAAAAAAAAAAAAAAAAAAAAAAAAAAAAAAAAAAAAAAAAAAAAAAAAAAAAAAAAAAAAAAAAAAAAAAAAAAAAAAAAAAAAAAAAAAAAAAAAAAAAAAAAAAAAAAAAAAAAAAAAAAAAAAAAAAAAAAAAAAAAAAAAAAAAAAAAAAAAAAAAAAAAAAAAAAAAAAAAAAAAAAAAAAAAAAAAAAAAAAAAAAAAAAAAAAAAAAAAAAAAAAAAAAAAAAAAAAAAAAAAAAAAAAAAAAAAAAAAAAAAAAAAAAAAAAAAAAAAAAAAAAAAAAAAAAAAAAAAAAAAAAAAAAAAAAAAAAAAAAAAAAAAAAAAAAAAAAAAAAAAAAAAAAAAAAAAAAAAAAAAAAAAAAAAAAAAAAAAAAAAAAAAAAAAAAAAAAAAAAAAAAAAAAAAAAAAAAAAAAAAAAAAAAAAAAAAAAAAAAAAAAAAAAAAAAAAAAAAAAAAAAAAAAAAAAAAAAAAAAAAAAAAAAAAAAAAAAAAAAAAAAAAAAAAAAAAAAAAAAAAAAAAAAAAAAAAAAAAAAAAAAAAAAAAAAAAAAAAAAAAAAAAAAAAAAAAAAAAAAAAAAAAAAAAAAAAAAAAAAAAAAAAAAAAAAAAAAAAAAAAAAAAAAAAAAAAAAAAAAAAAAAAAAAAAAAAAAAAAAAAAAAAAAAAAAAAAAAAAAAAAAAAAAAAAAAAAAAAAAAAAAAAAAAAAAAAAAAAAAAAAAAAAAAAAAAAAAAAAAAAAAAAAAAAAAAAAAAAAAAAAAAAAAAAAAAAAAAAAAAAAAAAAAAAAAAAAAAAAAAAAAAAAAAAAAAAAAAAAAAAAAAAAAAAAAAAAAAAAAAAAAAAAAAAAAAAAAAAAAAAAAAAAAAAAAAAAAAAAAAAAAAAAAAAAAAAAAAAAAAAAAAAAAAAAAAAAAAAAAAAAAAAAAAAAAAAAAAAAAAAAAAAAAAAAAAAAAAAAAAAAAAAAAAAAAAAAAAAAAAAAAAAAAAAAAAAAAAAAAAAAAAAAAAAAAAAAAAAAAAAAAAAAAAAAAAAAAAAAAAAAAAAAAAAAAAAAAAAAAAAAAAAAAAAAAAAAAAAAAAAAAAAAAAAAAAAAAAAAAAAAAAAAAAAAAAAAAAAAAAAAAAAAAAAAAAAAAAAAAAAAAAAAAAAAAAAAAAAAAAAAAAAAAAAAAAAAAAAAAAAAAAAAAAAAAAAAAAAAAAAAAAAAAAAAAAAAAAAAAAAAAAAAAAAAAAAAAAAAAAAAAAAAAAAAAAAAAAAAAAAAAAAAAAAAAAAAAAAAAAAAAAAAAAAAAAAAAAAAAAAAAAAAAAAAAAAAAAAAAAAAAAAAAAAAAAAAAAAAAAAAAAAAAAAAAAAAAAAAAAAAAAAAAAAAAAAAAAAAAAAAAAAAAAAAAAAAAAAAAAAAAAAAAAAAAAAAAAAAAAAAAAAAAAAAAAAAAAAAAAAAAAAAAAAAAAAAAAAAAAAAAAAAAAAAAAAAAAAAAAAAAAAAAAAAAAAAAAAAAAAAAAAAAAAAAAAAAAAAAAAAAAAAAAAAAAAAAAAAAAAAAAAAAAAAAAAAAAAAAAAAAAAAAAAAAAAAAAAAAAAAAAAAAAAAAAAAAAAAAAAAAAAAAAAAAAAAAAAAAAAAAAAAAAAAAAAAAAAAAAAAAAAAAAAAAAAAAAAAAAAAAAAAAAAAAAAAAAAAAAAAAAAAAAAAAAAAAAAAAAAAAAAAAAAAAAAAAAAAAAAAAAAAAAAAAAAAAAAAAAAAAAAAAAAAAAAAAAAAAAAAAAAAAAAAAAAAAAAAAAAAAAAAAAAAAAAAAAAAAAAAAAAAAAAAAAAAAAAAAAAAAAAAAAAAAAAAAAAAAAAAAAAAAAAAAAAAAAAAAAAAAAAAAAAAAAAAAAAAAAAAAAAAAAAAAAAAAAAAAAAAAAAAAAAAAAAAAAAAAAAAAAAAAAAAAAAAAAAAAAAAAAAAAAAAAAAAAAAAAAAAAAAAAAAAAAAAAAAAAAAAAAAAAAAAAAAAAAAAAAAAAAAAAAAAAAAAAAAAAAAAAAAAAAAAAAAAAAAAAAAAAAAAAAAAAAAAAAAAAAAAAAAAAAAAAAAAAAAAAAAAAAAAAAAAAAAAAAAAAAAAAAAAAAAAAAAAAAAAAAAAAAAAAAAAAAAAAAAAAAAAAAAAAAAAAAAAAAAAAAAAAAAAAAAAAAAAAAAAAAAAAAAAAAAAAAAAAAAAAAAAAAAAAAAAAAAAAAAAAAAAAAAAAAAAAAAAAAAAAAAAAAAAAAAAAAAAAAAAAAAAAAAAAAAAAAAAAAAAAAAAAAAAAAAAAAAAAAAAAAAAAAAAAAAAAAAAAAAAAAAAAAAAAAAAAAAAAAAAAAAAAAAAAAAAAAAAAAAAAAAAAAAAAAAAAAAAAAAAAAAAAAAAAAAAAAAAAAAAAAAAAAAAAAAAAAAAAAAAAAAAAAAAAAAAAAAAAAAAAAAAAAAAAAAAAAAAAAAAAAAAAAAAAAAAAAAAAAAAAAAAAAAAAAAAAAAAAAAAAAAAAAAAAAAAAAAAAAAAAAAAAAAAAAAAAAAAAAAAAAAAAAAAAAAAAAAAAAAAAAAAAAAAAAAAAAAAAAAAAAAAAAAAAAAAAAAAAAAAAAAAAAAAAAAAAAAAAAAAAAAAAAAAAAAAAAAAAAAAAAAAAAAAAAAAAAAAAAAAAAAA9lkBAE9C8UsHh6D5aQ0GiHido5cJTCcVb3nPN0O76tgm2Uq3Ghit/r+jiAxMjRmTJozxMMURvsDQPw84QeqaJler1tdDQvHJ0ekQmhRzKPDeMzAMCgDrdfHe3jaPXb0hGtwK3YH6YjrtVpk0nVzX5RaYdQrcTX0yaB7kgAK2hie2HogGSzt38cCQH4rwD9wS6mSWRWN2KYXtHgGNN6xHrcBszrVJ2Yoqjy9JWNc901ODAhAx6cj+2NfavGj9igmQOAIceqiiwnP3WnhXbdPb2xU/0kYrvq14KiEKkYKYmLpaB1LuSKqH2d6AUsjpwO6uGeDu3VAc9gjEaTXvKEC5xXAWHkUAADfbanVtYgAAAEdqdW1kYzJtYQARABCAAACqADibcQN1cm46YzJwYTpjODI5Yjg1My02YmJlLTQyY2YtODcwYi0yYTU5MGM4ZTJhYzIAAAAF72p1bWIAAAApanVtZGMyYXMAEQAQgAAAqgA4m3EDYzJwYS5hc3NlcnRpb25zAAAAAjxqdW1iAAAARGp1bWRjYm9yABEAEIAAAKoAOJtxE2MycGEuaW5ncmVkaWVudC52MwAAAAAYYzJzaA9G1v2MyLKQxN3TLLhHTUgAAAHwY2JvcqdscmVsYXRpb25zaGlwa2NvbXBvbmVudE9maGRjOnRpdGxld0FJIEdlbmVyYXRlZCBJbmdyZWRpZW50aWRjOmZvcm1hdGlpbWFnZS9wbmdxdmFsaWRhdGlvblJlc3VsdHOhbmFjdGl2ZU1hbmlmZXN0o2dzdWNjZXNzgG1pbmZvcm1hdGlvbmFsgGdmYWlsdXJlgGppbnN0YW5jZUlEeC11cm46dXVpZDowMmI3YWE5NS03ZjMwLTQ3ODktYTBiYS05ODZmNGY4OWEwYTluYWN0aXZlTWFuaWZlc3SjY3VybHg+c2VsZiNqdW1iZj0vYzJwYS91cm46YzJwYTo1OWE5MDRmNC05ZmZjLTQwZmMtYjBlNy04ZTI4NWE5YjQ0NTRjYWxnZnNoYTI1NmRoYXNoWCCUWqFP8aWPdMTz5ZU3ogvx1iAR1DLsQ7UlBoh6oCSFEG5jbGFpbVNpZ25hdHVyZaNjdXJseE1zZWxmI2p1bWJmPS9jMnBhL3VybjpjMnBhOjU5YTkwNGY0LTlmZmMtNDBmYy1iMGU3LThlMjg1YTliNDQ1NC9jMnBhLnNpZ25hdHVyZWNhbGdmc2hhMjU2ZGhhc2hYICiXysDktW8+BeSGv6uNFc+sp4wNIkDwu7IR0BeuqqhlAAACvmp1bWIAAABBanVtZGNib3IAEQAQgAAAqgA4m3ETYzJwYS5hY3Rpb25zLnYyAAAAABhjMnNohQ7GBEieBVKBf2xsmMFZygAAAnVjYm9yomdhY3Rpb25zgqJmYWN0aW9ubGMycGEuY3JlYXRlZHFkaWdpdGFsU291cmNlVHlwZXgnaHR0cDovL2MycGEub3JnL2RpZ2l0YWxzb3VyY2V0eXBlL2VtcHR5pWZhY3Rpb25rYzJwYS5wbGFjZWRkd2hlbsB0MjAyNi0wOS0xOVQxMToxNDowOFptc29mdHdhcmVBZ2VudHBGaXJlZmx5IFZlY3RvciA0anBhcmFtZXRlcnOja2luZ3JlZGllbnRzgaJjdXJseC1zZWxmI2p1bWJmPWMycGEuYXNzZXJ0aW9ucy9jMnBhLmluZ3JlZGllbnQudjNkaGFzaFggKWKi6+ve7vYttauca38XmFNMrNkcZPL2D+tbHk7cxgR4G2NvbS5hZG9iZS5kaWdpdGFsU291cmNlVHlwZXhTaHR0cDovL2N2LmlwdGMub3JnL25ld3Njb2Rlcy9kaWdpdGFsc291cmNldHlwZS9jb21wb3NpdGVXaXRoVHJhaW5lZEFsZ29yaXRobWljTWVkaWFxY29tLmFkb2JlLmdlbkFpSWR4JGRhYmY2MTk4LTg5NWUtNGY2Ny04MjYzLWIwMmM4ZDUwZWRjYnFkaWdpdGFsU291cmNlVHlwZXhTaHR0cDovL2N2LmlwdGMub3JnL25ld3Njb2Rlcy9kaWdpdGFsc291cmNldHlwZS9jb21wb3NpdGVXaXRoVHJhaW5lZEFsZ29yaXRobWljTWVkaWFpdGVtcGxhdGVzgaJmYWN0aW9uYSpydGVtcGxhdGVQYXJhbWV0ZXJzoXVjb20uYWRvYmUuYXBwRW5mb3JjZWT1AAAAxGp1bWIAAABAanVtZGNib3IAEQAQgAAAqgA4m3ETYzJwYS5oYXNoLmRhdGEAAAAAGGMyc2iT519s4kCyhEtj8Jh1YmtfAAAAfGNib3KlamV4Y2x1c2lvbnOBomVzdGFydBi/Zmxlbmd0aBmRqGRuYW1lbmp1bWJmIG1hbmlmZXN0Y2FsZ2ZzaGEyNTZkaGFzaFggKmE9b7Dk1yR+eH+uwc/fWin+2lK5ESRnadz5mgHUklpjcGFkSQAAAAAAAAAAAAAAAmFqdW1iAAAAJ2p1bWRjMmNsABEAEIAAAKoAOJtxA2MycGEuY2xhaW0udjIAAAACMmNib3Kmamluc3RhbmNlSUR4LHhtcDppaWQ6MGJhZDU5MzEtNDI1Zi00NTAxLWExOGYtNjEzOTA2YmMxNjc4dGNsYWltX2dlbmVyYXRvcl9pbmZvo2RuYW1lcUFkb2JlIElsbHVzdHJhdG9yZ3ZlcnNpb25kMzAuOHdvcmcuY29udGVudGF1dGguYzJwYV9yc2YwLjg2LjFpc2lnbmF0dXJleE1zZWxmI2p1bWJmPS9jMnBhL3VybjpjMnBhOmM4MjliODUzLTZiYmUtNDJjZi04NzBiLTJhNTkwYzhlMmFjMi9jMnBhLnNpZ25hdHVyZXJjcmVhdGVkX2Fzc2VydGlvbnOBomN1cmx4KXNlbGYjanVtYmY9YzJwYS5hc3NlcnRpb25zL2MycGEuaGFzaC5kYXRhZGhhc2hYIDsJMmPysYkOiID+suyemnGHPjLeF8HHoYysjFZOVkxlc2dhdGhlcmVkX2Fzc2VydGlvbnOComN1cmx4LXNlbGYjanVtYmY9YzJwYS5hc3NlcnRpb25zL2MycGEuaW5ncmVkaWVudC52M2RoYXNoWCDtNaL5ulkWrnAJBUZOE64h2tLAfMGnyIGKIvee8HRicqJjdXJseCpzZWxmI2p1bWJmPWMycGEuYXNzZXJ0aW9ucy9jMnBhLmFjdGlvbnMudjJkaGFzaFggOPOSCRSrI/QYoNRI5Mbt8Xv2MY0K5rGhPeL31F41gFtjYWxnZnNoYTI1NgAALzxqdW1iAAAAKGp1bWRjMmNzABEAEIAAAKoAOJtxA2MycGEuc2lnbmF0dXJlAAAALwxjYm9y0oRZBACiAScYIYJZAjswggI3MIIB6aADAgECAggAvedvhJVDgDAFBgMrZXAwYDEgMB4GA1UEAxMXYzJwYS1lcGhlbWVyYWwtY2EubG9jYWwxPDA6BgNVBAoTM1NlbGYtc2lnbmVkIGVwaGVtZXJhbCBDQSAoQ29udGVudCBBdXRoZW50aWNpdHkgU0RLKTAeFw0yNjA5MTgxMTE0NDlaFw0yNzA5MTkxMTE0NDlaMHsxIDAeBgNVBAMTF0Fkb2JlIENvbXBsaWFuY2UgU2lnbmVyMVcwVQYDVQQKE05TZWxmLXNpZ25lZCBlcGhlbWVyYWwgY2VydGlmaWNhdGUgKENvbnRlbnQgQXV0aGVudGljaXR5IFNESykgLS0gTE9DQUwgVVNFIE9OTFkwKjAFBgMrZXADIQCEAWaOA8N1NGoJ9dhT156JCYzTiCu7A7hVMkkFVm1OPqOBpTCBojAPBgNVHRMBAf8EBTADAQEAMA4GA1UdDwEB/wQEAwIAgDAdBgNVHSUEFjAUBggrBgEFBQcDBAYIKwYBBQUHAwAwGwYDVR0OBBTMriGF5OOQqsGq0vupFNGknaYBtzAfBgNVHSMEGDAWgBTl9l6hXvpKX1KWkLkUomLNhwuImzAiBgNVHREEGzAZghdBZG9iZSBDb21wbGlhbmNlIFNpZ25lcjAFBgMrZXADQQAV8mEhi1AGy3Dz343gRCr088r02KvBEUF/gK2XSmJlP3ebKGkroJvAu8s/vPznU18xtaBEEsVxsqSR6F1EuA8NWQG5MIIBtTCCAWegAwIBAgIHDtlsiYT4iTAFBgMrZXAwYDEgMB4GA1UEAxMXYzJwYS1lcGhlbWVyYWwtY2EubG9jYWwxPDA6BgNVBAoTM1NlbGYtc2lnbmVkIGVwaGVtZXJhbCBDQSAoQ29udGVudCBBdXRoZW50aWNpdHkgU0RLKTAeFw0yNjA5MTgxMTE0NDlaFw0yNzA5MTkxMTE0NDlaMGAxIDAeBgNVBAMTF2MycGEtZXBoZW1lcmFsLWNhLmxvY2FsMTwwOgYDVQQKEzNTZWxmLXNpZ25lZCBlcGhlbWVyYWwgQ0EgKENvbnRlbnQgQXV0aGVudGljaXR5IFNESykwKjAFBgMrZXADIQASmOTFL/UoiyYwGfCzu1G1Fsu4lF2nHAXR7o0GlhwYd6NAMD4wDwYDVR0TAQH/BAUwAwEB/zAOBgNVHQ8BAf8EBAMCAIYwGwYDVR0OBBTl9l6hXvpKX1KWkLkUomLNhwuImzAFBgMrZXADQQAhZOT+hL4G/mv/Z9g1Yw1u0ZHAs6Fkop1JyZVniOE815CwwiE71FoGA+krNW6K0EcN8OqsuvxJNVNwgDAwWA8IoWNwYWRZKrQAAAAAAAAAAAAAAAAAAAAAAAAAAAAAAAAAAAAAAAAAAAAAAAAAAAAAAAAAAAAAAAAAAAAAAAAAAAAAAAAAAAAAAAAAAAAAAAAAAAAAAAAAAAAAAAAAAAAAAAAAAAAAAAAAAAAAAAAAAAAAAAAAAAAAAAAAAAAAAAAAAAAAAAAAAAAAAAAAAAAAAAAAAAAAAAAAAAAAAAAAAAAAAAAAAAAAAAAAAAAAAAAAAAAAAAAAAAAAAAAAAAAAAAAAAAAAAAAAAAAAAAAAAAAAAAAAAAAAAAAAAAAAAAAAAAAAAAAAAAAAAAAAAAAAAAAAAAAAAAAAAAAAAAAAAAAAAAAAAAAAAAAAAAAAAAAAAAAAAAAAAAAAAAAAAAAAAAAAAAAAAAAAAAAAAAAAAAAAAAAAAAAAAAAAAAAAAAAAAAAAAAAAAAAAAAAAAAAAAAAAAAAAAAAAAAAAAAAAAAAAAAAAAAAAAAAAAAAAAAAAAAAAAAAAAAAAAAAAAAAAAAAAAAAAAAAAAAAAAAAAAAAAAAAAAAAAAAAAAAAAAAAAAAAAAAAAAAAAAAAAAAAAAAAAAAAAAAAAAAAAAAAAAAAAAAAAAAAAAAAAAAAAAAAAAAAAAAAAAAAAAAAAAAAAAAAAAAAAAAAAAAAAAAAAAAAAAAAAAAAAAAAAAAAAAAAAAAAAAAAAAAAAAAAAAAAAAAAAAAAAAAAAAAAAAAAAAAAAAAAAAAAAAAAAAAAAAAAAAAAAAAAAAAAAAAAAAAAAAAAAAAAAAAAAAAAAAAAAAAAAAAAAAAAAAAAAAAAAAAAAAAAAAAAAAAAAAAAAAAAAAAAAAAAAAAAAAAAAAAAAAAAAAAAAAAAAAAAAAAAAAAAAAAAAAAAAAAAAAAAAAAAAAAAAAAAAAAAAAAAAAAAAAAAAAAAAAAAAAAAAAAAAAAAAAAAAAAAAAAAAAAAAAAAAAAAAAAAAAAAAAAAAAAAAAAAAAAAAAAAAAAAAAAAAAAAAAAAAAAAAAAAAAAAAAAAAAAAAAAAAAAAAAAAAAAAAAAAAAAAAAAAAAAAAAAAAAAAAAAAAAAAAAAAAAAAAAAAAAAAAAAAAAAAAAAAAAAAAAAAAAAAAAAAAAAAAAAAAAAAAAAAAAAAAAAAAAAAAAAAAAAAAAAAAAAAAAAAAAAAAAAAAAAAAAAAAAAAAAAAAAAAAAAAAAAAAAAAAAAAAAAAAAAAAAAAAAAAAAAAAAAAAAAAAAAAAAAAAAAAAAAAAAAAAAAAAAAAAAAAAAAAAAAAAAAAAAAAAAAAAAAAAAAAAAAAAAAAAAAAAAAAAAAAAAAAAAAAAAAAAAAAAAAAAAAAAAAAAAAAAAAAAAAAAAAAAAAAAAAAAAAAAAAAAAAAAAAAAAAAAAAAAAAAAAAAAAAAAAAAAAAAAAAAAAAAAAAAAAAAAAAAAAAAAAAAAAAAAAAAAAAAAAAAAAAAAAAAAAAAAAAAAAAAAAAAAAAAAAAAAAAAAAAAAAAAAAAAAAAAAAAAAAAAAAAAAAAAAAAAAAAAAAAAAAAAAAAAAAAAAAAAAAAAAAAAAAAAAAAAAAAAAAAAAAAAAAAAAAAAAAAAAAAAAAAAAAAAAAAAAAAAAAAAAAAAAAAAAAAAAAAAAAAAAAAAAAAAAAAAAAAAAAAAAAAAAAAAAAAAAAAAAAAAAAAAAAAAAAAAAAAAAAAAAAAAAAAAAAAAAAAAAAAAAAAAAAAAAAAAAAAAAAAAAAAAAAAAAAAAAAAAAAAAAAAAAAAAAAAAAAAAAAAAAAAAAAAAAAAAAAAAAAAAAAAAAAAAAAAAAAAAAAAAAAAAAAAAAAAAAAAAAAAAAAAAAAAAAAAAAAAAAAAAAAAAAAAAAAAAAAAAAAAAAAAAAAAAAAAAAAAAAAAAAAAAAAAAAAAAAAAAAAAAAAAAAAAAAAAAAAAAAAAAAAAAAAAAAAAAAAAAAAAAAAAAAAAAAAAAAAAAAAAAAAAAAAAAAAAAAAAAAAAAAAAAAAAAAAAAAAAAAAAAAAAAAAAAAAAAAAAAAAAAAAAAAAAAAAAAAAAAAAAAAAAAAAAAAAAAAAAAAAAAAAAAAAAAAAAAAAAAAAAAAAAAAAAAAAAAAAAAAAAAAAAAAAAAAAAAAAAAAAAAAAAAAAAAAAAAAAAAAAAAAAAAAAAAAAAAAAAAAAAAAAAAAAAAAAAAAAAAAAAAAAAAAAAAAAAAAAAAAAAAAAAAAAAAAAAAAAAAAAAAAAAAAAAAAAAAAAAAAAAAAAAAAAAAAAAAAAAAAAAAAAAAAAAAAAAAAAAAAAAAAAAAAAAAAAAAAAAAAAAAAAAAAAAAAAAAAAAAAAAAAAAAAAAAAAAAAAAAAAAAAAAAAAAAAAAAAAAAAAAAAAAAAAAAAAAAAAAAAAAAAAAAAAAAAAAAAAAAAAAAAAAAAAAAAAAAAAAAAAAAAAAAAAAAAAAAAAAAAAAAAAAAAAAAAAAAAAAAAAAAAAAAAAAAAAAAAAAAAAAAAAAAAAAAAAAAAAAAAAAAAAAAAAAAAAAAAAAAAAAAAAAAAAAAAAAAAAAAAAAAAAAAAAAAAAAAAAAAAAAAAAAAAAAAAAAAAAAAAAAAAAAAAAAAAAAAAAAAAAAAAAAAAAAAAAAAAAAAAAAAAAAAAAAAAAAAAAAAAAAAAAAAAAAAAAAAAAAAAAAAAAAAAAAAAAAAAAAAAAAAAAAAAAAAAAAAAAAAAAAAAAAAAAAAAAAAAAAAAAAAAAAAAAAAAAAAAAAAAAAAAAAAAAAAAAAAAAAAAAAAAAAAAAAAAAAAAAAAAAAAAAAAAAAAAAAAAAAAAAAAAAAAAAAAAAAAAAAAAAAAAAAAAAAAAAAAAAAAAAAAAAAAAAAAAAAAAAAAAAAAAAAAAAAAAAAAAAAAAAAAAAAAAAAAAAAAAAAAAAAAAAAAAAAAAAAAAAAAAAAAAAAAAAAAAAAAAAAAAAAAAAAAAAAAAAAAAAAAAAAAAAAAAAAAAAAAAAAAAAAAAAAAAAAAAAAAAAAAAAAAAAAAAAAAAAAAAAAAAAAAAAAAAAAAAAAAAAAAAAAAAAAAAAAAAAAAAAAAAAAAAAAAAAAAAAAAAAAAAAAAAAAAAAAAAAAAAAAAAAAAAAAAAAAAAAAAAAAAAAAAAAAAAAAAAAAAAAAAAAAAAAAAAAAAAAAAAAAAAAAAAAAAAAAAAAAAAAAAAAAAAAAAAAAAAAAAAAAAAAAAAAAAAAAAAAAAAAAAAAAAAAAAAAAAAAAAAAAAAAAAAAAAAAAAAAAAAAAAAAAAAAAAAAAAAAAAAAAAAAAAAAAAAAAAAAAAAAAAAAAAAAAAAAAAAAAAAAAAAAAAAAAAAAAAAAAAAAAAAAAAAAAAAAAAAAAAAAAAAAAAAAAAAAAAAAAAAAAAAAAAAAAAAAAAAAAAAAAAAAAAAAAAAAAAAAAAAAAAAAAAAAAAAAAAAAAAAAAAAAAAAAAAAAAAAAAAAAAAAAAAAAAAAAAAAAAAAAAAAAAAAAAAAAAAAAAAAAAAAAAAAAAAAAAAAAAAAAAAAAAAAAAAAAAAAAAAAAAAAAAAAAAAAAAAAAAAAAAAAAAAAAAAAAAAAAAAAAAAAAAAAAAAAAAAAAAAAAAAAAAAAAAAAAAAAAAAAAAAAAAAAAAAAAAAAAAAAAAAAAAAAAAAAAAAAAAAAAAAAAAAAAAAAAAAAAAAAAAAAAAAAAAAAAAAAAAAAAAAAAAAAAAAAAAAAAAAAAAAAAAAAAAAAAAAAAAAAAAAAAAAAAAAAAAAAAAAAAAAAAAAAAAAAAAAAAAAAAAAAAAAAAAAAAAAAAAAAAAAAAAAAAAAAAAAAAAAAAAAAAAAAAAAAAAAAAAAAAAAAAAAAAAAAAAAAAAAAAAAAAAAAAAAAAAAAAAAAAAAAAAAAAAAAAAAAAAAAAAAAAAAAAAAAAAAAAAAAAAAAAAAAAAAAAAAAAAAAAAAAAAAAAAAAAAAAAAAAAAAAAAAAAAAAAAAAAAAAAAAAAAAAAAAAAAAAAAAAAAAAAAAAAAAAAAAAAAAAAAAAAAAAAAAAAAAAAAAAAAAAAAAAAAAAAAAAAAAAAAAAAAAAAAAAAAAAAAAAAAAAAAAAAAAAAAAAAAAAAAAAAAAAAAAAAAAAAAAAAAAAAAAAAAAAAAAAAAAAAAAAAAAAAAAAAAAAAAAAAAAAAAAAAAAAAAAAAAAAAAAAAAAAAAAAAAAAAAAAAAAAAAAAAAAAAAAAAAAAAAAAAAAAAAAAAAAAAAAAAAAAAAAAAAAAAAAAAAAAAAAAAAAAAAAAAAAAAAAAAAAAAAAAAAAAAAAAAAAAAAAAAAAAAAAAAAAAAAAAAAAAAAAAAAAAAAAAAAAAAAAAAAAAAAAAAAAAAAAAAAAAAAAAAAAAAAAAAAAAAAAAAAAAAAAAAAAAAAAAAAAAAAAAAAAAAAAAAAAAAAAAAAAAAAAAAAAAAAAAAAAAAAAAAAAAAAAAAAAAAAAAAAAAAAAAAAAAAAAAAAAAAAAAAAAAAAAAAAAAAAAAAAAAAAAAAAAAAAAAAAAAAAAAAAAAAAAAAAAAAAAAAAAAAAAAAAAAAAAAAAAAAAAAAAAAAAAAAAAAAAAAAAAAAAAAAAAAAAAAAAAAAAAAAAAAAAAAAAAAAAAAAAAAAAAAAAAAAAAAAAAAAAAAAAAAAAAAAAAAAAAAAAAAAAAAAAAAAAAAAAAAAAAAAAAAAAAAAAAAAAAAAAAAAAAAAAAAAAAAAAAAAAAAAAAAAAAAAAAAAAAAAAAAAAAAAAAAAAAAAAAAAAAAAAAAAAAAAAAAAAAAAAAAAAAAAAAAAAAAAAAAAAAAAAAAAAAAAAAAAAAAAAAAAAAAAAAAAAAAAAAAAAAAAAAAAAAAAAAAAAAAAAAAAAAAAAAAAAAAAAAAAAAAAAAAAAAAAAAAAAAAAAAAAAAAAAAAAAAAAAAAAAAAAAAAAAAAAAAAAAAAAAAAAAAAAAAAAAAAAAAAAAAAAAAAAAAAAAAAAAAAAAAAAAAAAAAAAAAAAAAAAAAAAAAAAAAAAAAAAAAAAAAAAAAAAAAAAAAAAAAAAAAAAAAAAAAAAAAAAAAAAAAAAAAAAAAAAAAAAAAAAAAAAAAAAAAAAAAAAAAAAAAAAAAAAAAAAAAAAAAAAAAAAAAAAAAAAAAAAAAAAAAAAAAAAAAAAAAAAAAAAAAAAAAAAAAAAAAAAAAAAAAAAAAAAAAAAAAAAAAAAAAAAAAAAAAAAAAAAAAAAAAAAAAAAAAAAAAAAAAAAAAAAAAAAAAAAAAAAAAAAAAAAAAAAAAAAAAAAAAAAAAAAAAAAAAAAAAAAAAAAAAAAAAAAAAAAAAAAAAAAAAAAAAAAAAAAAAAAAAAAAAAAAAAAAAAAAAAAAAAAAAAAAAAAAAAAAAAAAAAAAAAAAAAAAAAAAAAAAAAAAAAAAAAAAAAAAAAAAAAAAAAAAAAAAAAAAAAAAAAAAAAAAAAAAAAAAAAAAAAAAAAAAAAAAAAAAAAAAAAAAAAAAAAAAAAAAAAAAAAAAAAAAAAAAAAAAAAAAAAAAAAAAAAAAAAAAAAAAAAAAAAAAAAAAAAAAAAAAAAAAAAAAAAAAAAAAAAAAAAAAAAAAAAAAAAAAAAAAAAAAAAAAAAAAAAAAAAAAAAAAAAAAAAAAAAAAAAAAAAAAAAAAAAAAAAAAAAAAAAAAAAAAAAAAAAAAAAAAAAAAAAAAAAAAAAAAAAAAAAAAAAAAAAAAAAAAAAAAAAAAAAAAAAAAAAAAAAAAAAAAAAAAAAAAAAAAAAAAAAAAAAAAAAAAAAAAAAAAAAAAAAAAAAAAAAAAAAAAAAAAAAAAAAAAAAAAAAAAAAAAAAAAAAAAAAAAAAAAAAAAAAAAAAAAAAAAAAAAAAAAAAAAAAAAAAAAAAAAAAAAAAAAAAAAAAAAAAAAAAAAAAAAAAAAAAAAAAAAAAAAAAAAAAAAAAAAAAAAAAAAAAAAAAAAAAAAAAAAAAAAAAAAAAAAAAAAAAAAAAAAAAAAAAAAAAAAAAAAAAAAAAAAAAAAAAAAAAAAAAAAAAAAAAAAAAAAAAAAAAAAAAAAAAAAAAAAAAAAAAAAAAAAAAAAAAAAAAAAAAAAAAAAAAAAAAAAAAAAAAAAAAAAAAAAAAAAAAAAAAAAAAAAAAAAAAAAAAAAAAAAAAAAAAAAAAAAAAAAAAAAAAAAAAAAAAAAAAAAAAAAAAAAAAAAAAAAAAAAAAAAAAAAAAAAAAAAAAAAAAAAAAAAAAAAAAAAAAAAAAAAAAAAAAAAAAAAAAAAAAAAAAAAAAAAAAAAAAAAAAAAAAAAAAAAAAAAAAAAAAAAAAAAAAAAAAAAAAAAAAAAAAAAAAAAAAAAAAAAAAAAAAAAAAAAAAAAAAAAAAAAAAAAAAAAAAAAAAAAAAAAAAAAAAAAAAAAAAAAAAAAAAAAAAAAAAAAAAAAAAAAAAAAAAAAAAAAAAAAAAAAAAAAAAAAAAAAAAAAAAAAAAAAAAAAAAAAAAAAAAAAAAAAAAAAAAAAAAAAAAAAAAAAAAAAAAAAAAAAAAAAAAAAAAAAAAAAAAAAAAAAAAAAAAAAAAAAAAAAAAAAAAAAAAAAAAAAAAAAAAAAAAAAAAAAAAAAAAAAAAAAAAAAAAAAAAAAAAAAAAAAAAAAAAAAAAAAAAAAAAAAAAAAAAAAAAAAAAAAAAAAAAAAAAAAAAAAAAAAAAAAAAAAAAAAAAAAAAAAAAAAAAAAAAAAAAAAAAAAAAAAAAAAAAAAAAAAAAAAAAAAAAAAAAAAAAAAAAAAAAAAAAAAAAAAAAAAAAAAAAAAAAAAAAAAAAAAAAAAAAAAAAAAAAAAAAAAAAAAAAAAAAAAAAAAAAAAAAAAAAAAAAAAAAAAAAAAAAAAAAAAAAAAAAAAAAAAAAAAAAAAAAAAAAAAAAAAAAAAAAAAAAAAAAAAAAAAAAAAAAAAAAAAAAAAAAAAAAAAAAAAAAAAAAAAAAAAAAAAAAAAAAAAAAAAAAAAAAAAAAAAAAAAAAAAAAAAAAAAAAAAAAAAAAAAAAAAAAAAAAAAAAAAAAAAAAAAAAAAAAAAAAAAAAAAAAAAAAAAAAAAAAAAAAAAAAAAAAAAAAAAAAAAAAAAAAAAAAAAAAAAAAAAAAAAAAAAAAAAAAAAAAAAAAAAAAAAAAAAAAAAAAAAAAAAAAAAAAAAAAAAAAAAAAAAAAAAAAAAAAAAAAAAAAAAAAAAAAAAAAAAAAAAAAAAAAAAAAAAAAAAAAAAAAAAAAAAAAAAAAAAAAAAAAAAAAAAAAAAAAAAAAAAAAAAAAAAAAAAAAAAAAAAAAAAAAAAAAAAAAAAAAAAAAAAAAAAAAAAAAAAAAAAAAAAAAAAAAAAAAAAAAAAAAAAAAAAAAAAAAAAAAAAAAAAAAAAAAAAAAAAAAAAAAAAAAAAAAAAAAAAAAAAAAAAAAAAAAAAAAAAAAAAAAAAAAAAAAAAAAAAAAAAAAAAAAAAAAAAAAAAAAAAAAAAAAAAAAAAAAAAAAAAAAAAAAAAAAAAAAAAAAAAAAAAAAAAAAAAAAAAAAAAAAAAAAAAAAAAAAAAAAAAAAAAAAAAAAAAAAAAAAAAAAAAAAAAAAAAAAAAAAAAAAAAAAAAAAAAAAAAAAAAAAAAAAAAAAAAAAAAAAAAAAAAAAAAAAAAAAAAAAAAAAAAAAAAAAAAAAAAAAAAAAAAAAAAAAAAAAAAAAAAAAAAAAAAAAAAAAAAAAAAAAAAAAAAAAAAAAAAAAAAAAAAAAAAAAAAAAAAAAAAAAAAAAAAAAAAAAAAAAAAAAAAAAAAAAAAAAAAAAAAAAAAAAAAAAAAAAAAAAAAAAAAAAAAAAAAAAAAAAAAAAAAAAAAAAAAAAAAAAAAAAAAAAAAAAAAAAAAAAAAAAAAAAAAAAAAAAAAAAAAAAAAAAAAAAAAAAAAAAAAAAAAAAAAAAAAAAAAAAAAAAAAAAAAAAAAAAAAAAAAAAAAAAAAAAAAAAAAAAAAAAAAAAAAAAAAAAAAAAAAAAAAAAAAAAAAAAAAAAAAAAAAAAAAAAAAAAAAAAAAAAAAAAAAAAAAAAAAAAAAAAAAAAAAAAAAAAAAAAAAAAAAAAAAAAAAAAAAAAAAAAAAAAAAAAAAAAAAAAAAAAAAAAAAAAAAAAAAAAAAAAAAAAAAAAAAAAAAAAAAAAAAAAAAAAAAAAAAAAAAAAAAAAAAAAAAAAAAAAAAAAAAAAAAAAAAAAAAAAAAAAAAAAAAAAAAAAAAAAAAAAAAAAAAAAAAAAAAAAAAAAAAAAAAAAAAAAAAAAAAAAAAAAAAAAAAAAAAAAAAAAAAAAAAAAAAAAAAAAAAAAAAAAAAAAAAAAAAAAAAAAAAAAAAAAAAAAAAAAAAAAAAAAAAAAAAAAAAAAAAAAAAAAAAAAAAAAAAAAAAAAAAAAAAAAAAAAAAAAAAAAAAAAAAAAAAAAAAAAAAAAAAAAAAAAAAAAAAAAAAAAAAAAAAAAAAAAAAAAAAAAAAAAAAAAAAAAAAAAAAAAAAAAAAAAAAAAAAAAAAAAAAAAAAAAAAAAAAAAAAAAAAAAAAAAAAAAAAAAAAAAAAAAAAAAAAAAAAAAAAAAAAAAAAAAAAAAAAAAAAAAAAAAAAAAAAAAAAAAAAAAAAAAAAAAAAAAAAAAAAAAAAAAAAAAAAAAAAAAAAAAAAAAAAAAAAAAAAAAAAAAAAAAAAAAAAAAAAAAAAAAAAAAAAAAAAAAAAAAAAAAAAAAAAAAAAAAAAAAAAAAAAAAAAAAAAAAAAAAAAAAAAAAAAAAAAAAAAAAAAAAAAAAAAAAAAAAAAAAAAAAAAAAAAAAAAAAAAAAAAAAAAAAAAAAAAAAAAAAAAAAAAAAAAAAAAAAAAAAAAAAAAAAAAAAAAAAAAAAAAAAAAAAAAAAAAAAAAAAAAAAAAAAAAAAAAAAAAAAAAAAAAAAAAAAAAAAAAAAAAAAAAAAAAAAAAAAAAAAAAAAAAAAAAAAAAAAAAAAAAAAAAAAAAAAAAAAAAAAAAAAAAAAAAAAAAAAAAAAAAAAAAAAAAAAAAAAAAAAAAAAAAAAAAAAAAAAAAAAAAAAAAAAAAAAAAAAAAAAAAAAAAAAAAAAAAAAAAAAAAAAAAAAAAAAAAAAAAAAAAAAAAAAAAAAAAAAAAAAAAAAAAAAAAAAAAAAAAAAAAAAAAAAAAAAAAAAAAAAAAAAAAAAAAAAAAAAAAAAAAAAAAAAAAAAAAAAAAAAAAAAAAAAAAAAAAAAAAAAAAAAAAAAAAAAAAAAAAAAAAAAAAAAAAAAAAAAAAAAAAAAAAAAAAAAAAAAAAAAAAAAAAAAAAAAAAAAAAAAAAAAAAAAAAAAAAAAAAAAAAAAAAAAAAAAAAAAAAAAAAAAAAAAAAAAAAAAAAAAAAAAAAAAAAAAAAAAAAAAAAAAAAAAAAAAAAAAAAAAAAAAAAAAAAAAAAAAAAAAAAAAAAAAAAAAAAAAAAAAAAAAAAAAAAAAAAAAAAAAAAAAAAAAAAAAAAAAAAAAAAAAAAAAAAAAAAAAAAAAAAAAAAAAAAAAAAAAAAAAAAAAAAAAAAAAAAAAAAAAAAAAAAAAAAAAAAAAAAAAAAAAAAAAAAAAAAAAAAAAAAAAAAAAAAAAAAAAAAAAAAAAAAAAAAAAAAAAAAAAAAAAAAAAAAAAAAAAAAAAAAAAAAAAAAAAAAAAAAAAAAAAAAAAAAAAAAAAAAAAAAAAAAAAAAAAAAAAAAAAAAAAAAAAAAAAAAAAAAAAAAAAAAAAAAAAAAAAAAAAAAAAAAAAAAAAAAAAAAAAAAAAAAAAAAAAAAAAAAAAAAAAAAAAAAAAAAAAAAAAAAAAAAAAAAAAAAAAAAAAAAAAAAAAAAAAAAAAAAAAAAAAAAAAAAAAAAAAAAAAAAAAAAAAAAAAAAAAAAAAAAAAAAAAAAAAAAAAAAAAAAAAAAAAAAAAAAAAAAAAAAAAAAAAAAAAAAAAAAAAAAAAAAAAAAAAAAAAAAAAAAAAAAAAAAAAAAAAAAAAAAAAAAAAAAAAAAAAAAAAAAAAAAAAAAAAAAAAAAAAAAAAAAAAAAAAAAAAAAAAAAAAAAAAAAAAAAAAAAAAAAAAAAAAAAAAAAAAAAAAAAAAAAAAAAAAAAAAAAAAAAAAAAAAAAAAAAAAAAAAAAAAAAAAAAAAAAAAAAAAAAAAAAAAAAAAAAAAAAAAAAAAAAAAAAAAAAAAAAAAAAAAAAAAAAAAAAAAAAAAAAAAAAAAAAAAAAAAAAAAAAAAAAAAAAAAAAAAAAAAAAAAAAAAAAAAAAAAAAAAAAAAAAAAAAAAAAAAAAAAAAAAAAAAAAAAAAAAAAAAAAAAAAAAAAAAAAAAAAAAAAAAAAAAAAAAAAAAAAAAAAAAAAAAAAAAAAAAAAAAAAAAAAAAAAAAAAAAAAAAAAAAAAAAAAAAAAAAAAAAAAAAAAAAAAAAAAAAAAAAAAAAAAAAAAAAAAAAAAAAAAAAAAAAAAAAAAAAAAAAAAAAAAAAAAAAAAAAAAAAAAAAAAAAAAAAAAAAAAAAAAAAAAAAAAAAAAAAAAAAAAAAAAAAAAAAAAAAAAAAAAAAAAAAAAAAAAAAAAAAAAAAAAAAAAAAAAAAAAAAAAAAAAAAAAAAAAAAAAAAAAAAAAAAAAAAAAAAAAAAAAAAAAAAAAAAAAAAAAAAAAAAAAAAAAAAAAAAAAAAAAAAAAAAAAAAAAAAAAAAAAAAAAAAAAAAAAAAAAAAAAAAAAAAAAAAAAAAAAAAAAAAAAAAAAAAAAAAAAAAAAAAAAAAAAAAAAAAAAAAAAAAAAAAAAAAAAAAAAAAAAAAAAAAAAAAAAAAAAAAAAAAAAAAAAAAAAAAAAAAAAAAAAAAAAAAAAAAAAAAAAAAAAAAAAAAAAAAAAAAAAAAAAAAAAAAAAAAAAAAAAAAAAAAAAAAAAAAAAAAAAAAAAAAAAAAAAAAAAAAAAAAAAAAAAAAAAAAAAAAAAAAAAAAAAAAAAAAAAAAAAAAAAAAAAAAAAAAAAAAAAAAAAAAAAAAAAAAAAAAAAAAAAAAAAAAAAAAAAAAAAAAAAAAAAAAAAAAAAAAAAAAAAAAAAAAAAAAAAAAAAAAAAAAAAAAAAAAAAAAAAAAAAAAAAAAAAAAAAAAAAAAAAAAAAAAAAAAAAAAAAAAAAAAAAAAAAAAAAAAAAAAAAAAAAAAAAAAAAAAAAAAAAAAAAAAAAAAAAAAAAAAAAAAAAAAAAAAAAAAAAAAAAAAAAAAAAAAAAAAAAAAAAAAAAAAAAAAAAAAAAAAAAAAAAAAAAAAAAAAAAAAAAAAAAAAAAAAAAAAAAAAAAAAAAAAAAAAAAAAAAAAAAAAAAAAAAAAAAAAAAAAAAAAAAAAAAAAAAAAAAAAAAAAAAAAAAAAAAAAAAAAAAAAAAAAAAAAAAAAAAAAAAAAAAAAAAAAAAAAAAAAAAAAAAAAAAAAAAAAAAAAAAAAAAAAAAAAAAAAAAAAAAAAAAAAAAAAAAAAAAAAAAAAAAAAAAAAAAAAAAAAAAAAAAAAAAAAAAAAAAAAAAAAAAAAAAAAAAAAAAAAAAAAAAAAAAAAAAAAAAAAAAAAAAAAAAAAAAAAAAAAAAAAAAAAAAAAAAAAAAAAAAAAAAAAAAAAAAAAAAAAAAAAAAAAAAAAAAAAAAAAAAAAAAAAAAAAAAAAAAAAAAAAAAAAAAAAAAAAAAAAAAAAAAAAAAAAAAAAAAAAAAAAAAAAAAAAAAAAAAAAAAAAAAAAAAAAAAAAAAAAAAAAAAAAAAAAAAAAAAAAAAAAAAAAAAAAAAAAAAAAAAAAAAAAAAAAAAAAAAAAAAAAAAAAAAAAAAAAAAAAAAAAAAAAAAAAAAAAAAAAAAAAAAAAAAAAAAAAAAAAAAAAAAAAAAAAAAAAAAAAAAAAAAAAAAAAAAAAAAAAAAAAAAAAAAAAAAAAAAAAAAAAAAAAAAAAAAAAAAAAAAAAAAAAAAAAAAAAAAAAAAAAAAAAAAAAAAAAAAAAAAAAAAAAAAAAAAAAAAAAAAAAAAAAAAAAAAAAAAAAAAAAAAAAAAAAAAAAAAAAAAAAAAAAAAAAAAAAAAAAAAAAAAAAAAAAAAAAAAAAAAAAAAAAAAAAAAAAAAAAAAAAAAAAAAAAAAAAAAAAAAAAAAAAAAAAAAAAAAAAAAAAAAAAAAAAAAAAAAAAAAAAAAAAAAAAAAAAAAAAAAAAAAAAAAAAAAAAAAAAAAAAAAAAAAAAAAAAAAAAAAAAAAAAAAAAAAAAAAAAAAAAAAAAAAAAAAAAAAAAAAAAAAAAAAAAAAAAAAAAAAAAAAAAAAAAAAAAAAAAAAAAAAAAAAAAAAAAAAAAAAAAAAAAAAAAAAAAAAAAAAAAAAAAAAAAAAAAAAAAAAAAAAAAAAAAAAAAAAAAAAAAAAAAAAAAAAAAAAAAAAAAAAAAAAAAAAAAAAAAAAAAAAAAAAAAAAAAAAAAAAAAAAAAAAAAAAAAAAAAAAAAAAAAAAAAAAAAAAAAAAAAAAAAAAAAAAAAAAAAAAAAAAAAAAAAAAAAAAAAAAAAAAAAAAAAAAAAAAAAAAAAAAAAAAAAAAAAAAAAAAAAAAAAAAAAAAAAAAAAAAAAAAAAAAAAAAAAAAAAAAAAAAAAAAAAAAAAAAAAAAAAAAAAAAAAAAAAAAAAAAAAAAAAAAAAAAAAAAAAAAAAAAAAAAAAAAAAAAAAAAAAAAAAAAAAAAAAAAAAAAAAAAAAAAAAAAAAAAAAAAAAAAAAAAAAAAAAAAAAAAAAAAAAAAAAAAAAAAAAAAAAAAAAAAAAAAAAAAAAAAAAAAAAAAAAAAAAAAAAAAAAAAAAAAAAAAAAAAAAAAAAAAAAAAAAAAAAAAAAAAAAAAAAAAAAAAAAAAAAAAAAAAAAAAAAAAAAAAAAAAAAAAAAAAAAAAAAAAAAAAAAAAAAAAAAAAAAAAAAAAAAAAAAAAAAAAAAAAAAAAAAAAAAAAAAAAAAAAAAAAAAAAAAAAAAAAAAAAAAAAAAAAAAAAAAAAAAAAAAAAAAAAAAAAAAAAAAAAAAAAAAAAAAAAAAAAAAAAAAAAAAAAAAAAAAAAAAAAAAAAAAAAAAAAAAAAAAAAAAAAAAAAAAAAAAAAAAAAAAAAAAAAAAAAAAAAAAAAAAAAAAAAAAAAAAAAAAAAAAAAAAAAAAAAAAAAAAAAAAAAAAAAAAAAAAAAAAAAAAAAAAAAAAAAAAAAAAAAAAAAAAAAAAAAAAAAAAAAAAAAAAAAAAAAAAAAAAAAAAAAAAAAAAAAAAAAAAAAAAAAAAAAAAAAAAAAAAAAAAAAAAAAAAAAAAAAAAAAAAAAAAAAAAAAAAAAAAAAAAAAAAAAAAAAAAAAAAAAAAAAAAAAAAAAAAAAAAAAAAAAAAAAAAAAAAAAAAAAAAAAAAAAAAAAAAAAAAAAAAAAAAAAAAAAAAAAAAAAAAAAAAAAAAAAAAAAAAAAAAAAAAAAAAAAAAAAAAAAAAAAAAAAAAAAAAAAAAAAAAAAAAAAAAAAAAAAAAAAAAAAAAAAAAAAAAAAAAAAAAAAAAAAAAAAAAAAAAAAAAAAAAAAAAAAAAAAAAAAAAAAAAAAAAAAAAAAAAAAAAAAAAAAAAAAAAAAAAAAAAAAAAAAAAAAAAAAAAAAAAAAAAAAAAAAAAAAAAAAAAAAAAAAAAAAAAAAAAAAAAAAAAAAAAAAAAAAAAAAAAAAAAAAAAAAAAAAAAAAAAAAAAAAAAAAAAAAAAAAAAAAAAAAAAAAAAAAAAAAAAAAAAAAAAAAAAAAAAAAAAAAAAAAAAAAAAAAAAAAAAAAAAAAAAAAAAAAAAAAAAAAAAAAAAAAAAAAAAAAAAAAAAAAAAAAAAAAAAAAAAAAAAAAAAAAAAAAAAAAAAAAAAAAAAAAAAAAAAAAAAAAAAAAAAAAAAAAAAAAAAAAAAAAAAAAAAAAAAAAAAAAAAAAAAAAAAAAAAAAAAAAAAAAAAAAAAAAAAAAAAAAAAAAAAAAAAAAAAAAAAAAAAAAAAAAAAAAAAAAAAAAAAAAAAAAAAAAAAAAAAAAAAAAAAAAAAAAAAAAAAAAAAAAAAAAAAAAAAAAAAAAAAAAAAAAAAAAAAAAAAAAAAAAAAAAAAAAAAAAAAAAAAAAAAAAAAAAAAAAAAAAAAAAAAAAAAAAAAAAAAAAAAAAAAAAAAAAAAAAAAAAAAAAAAAAAAAAAAAAAAAAAAAAAAAAAAAAAAAAAAAAAAAAAAAAAAAAAAAAAAAAAAAAAAAAAAAAAAAAAAAAAAAAAAAAAAAAAAAAAAAAAAAAAAAAAAAAAAAAAAAAAAAAAAAAAAAAAAAAAAAAAAAAAAAAAAAAAAAAAAAAAAAAAAAAAAAAAAAAAAAAAAAAAAAAAAAAAAAAAAAAAAAAAAAAAAAAAAAAAAAAAAAAAAAAAAAAAAAAAAAAAAAAAAAAAAAAAAAAAAAAAAAAAAAAAAAAAAAAAAAAAAAAAAAAAAAAAAAAAAAAAAAAAAAAAAAAAAAAAAAAAAAAAAAAAAAAAAAAAAAAAAAAAAAAAAAAAAAAAAAAAAAAAAAAAAAAAAAAAAAAAAAAAAAAAAAAAAAAAAAAAAAAAAAAAAAAAAAAAAAAD2WEB7r8b2Trl9KowPByFMoOz+qq7vja8jw65elBB5qGdoYEv39vevyy7M047NzBluqMyHLwjHOZ6FpFYYiMn5v3gH</c2pa:manifest></metadata>
  <!-- Generator: Adobe Illustrator 30.8.1, SVG Export Plug-In . SVG Version: 2.1.4 Build 1)  -->
  <g id="Smiling_Tooth">
    <path d="M354,504.8l-3,3.9c1.7.3,2.8.8,3.3,2.7-4.2-1.2-7.9,2.5-7.9,2.4l.8,1.3c-1.5-.6-3.8.8-4.5,2.1.5,1.1,3.4,1.4,3.5.5s.4-2,1-2.5c1.4.5,2.1,2.6,4.6,1.3-.7,1.9.6,2.5.9,3.2.6,1.5-.8,2.1-1.5,2.4-1,.3-2.9.9-3.4-.7.8.1,1.9.5,2.7-.6-.4-1.4-1.5-1-1.8-.6s-1.1.8-.8,1.3c-.1,0-.5.3-1.2-.1.3,0,.6.3.8.6s0,.7-.2,1c-.4.4-1,.4-1.4,0,1.6,0,1.4,2.3,0,1.6-.8,0-1.7.9-2.1.7s-.8-.9-1.5-.2c.1.7.8,1.3.7,1.6s-.8.5-1,.3c-.5-.3-.4-1.1-.4-1.4l-5.3-1.6c-2.6-.8-4.5-.7-7.7,0-.9,0-.8.6.4,1.2-.9.5-2.7.4-4.2,1.7-2.8-1.3-6.1-2.1-9.4-.9h-5.1c.4-.3,1-.3,1.4,0,.6.5.4,1.5-.3,1.9-2.9-.9-4.1-.4-6.2-.5l-21.8-1.2c0,.4,0,.7.5,1.1l10.6.5,5.8.9c-1.4,2.1-3.5.3-4.8.2l-12.7-.9h-60c0-.5.2-.8.7-1.2l5.5.6c.4-.6.6-.8.6-.9-3.7-.6-7.5.1-11.5.3l-11.3.6-13,.6c1.4-3,4.9,1,5.2-1.5.4.3,1.1,1.4,1.7,1s.2-1.3,1.8-1.4c-.7-1-3.3-.9-3.5.4l-3.9-.6-4.9.3c-1.6,0-2.1-.3-3.7,0-5.2.8-13.2.6-17.2-1.2,3.9-.1,7.1,1.4,10.9-.4-4.6-1.3-9.1-.3-13.7-.3-1.2-1-3.1-1.7-5.3-.9,1.6,1.4,2.8,1.1,5.3.9-.6,1.5-2.2,1.2-4.3,1.9-.4-1.4-1.7-1.7-3.4-1.2.9-1.3.1-1.8-1-1.8-1.6,1.6-3.7.4-4.7.9s-2,1.8-2.5-.2c-3.3-.2-6.7,0-10.1,2.3-1.1-.3-.7-1.2-.4-1.2h1.1c1.6,0,2.2-1.3,1.1-2.7-.7-.1-1.7-.5-1.9-1s0-1.6.8-2l3-1.3c.4.3,1,.8,1.3.6.6-.3.6-.8.5-1.1-.2-.5-.8-.8-1.5-.4.4-1.4,1.2-1.4,1.9-1.5,1.1-.1,2.1,0,2.6,1.3-.6-.6-1.5-.2-1.8.3s.1,1,.6,1.3.7-.1.9-.5c2.5,1.2,4.7.9,6.8-1.5,1.2,1.2-.1,2.2-.7,3.1-.7-.2-1.4-.9-1.7.3s-.2,1.5.6,2c0-1.2.4-1.8,1.1-2.3s1.8-1.4,3.5-1.9l-.9-2.9,3.8-8.2c.5-2.2.7-5,3.1-6.7-.8-4.5,0-8.1,1.4-12s0-10.3-.3-15.6-.3-8.1-.2-12c.7,1.3,2.7,1.3,3.5.5-1-.6-1.8-1.4-3.5-.5v-3.7c.1-2.8-.7-5.5-1.2-8.1-.8-3.9.5-8.3,0-12.6s-.6-9.4-.6-14c.5,0,.7-.2.8-.5.2-.6.2-1.6-.6-2-.3,1.2-.2,1.8-.2,2.5-.3,0-.6-.1-1.5-.8l-.3,20.5c-.2,9.9,2.2,19.6,1.5,29.5,0,1.3-1.3,2.8,1.3,3.8-2.3,2-1.8,4.2-.7,6.4-3.3,1.8-1,5.3-1.7,6.9s-1.3,3-2.1,5.2l-3.5,10.3c-1.3,3.7-3.2,6.5-6,9.6-1.6-1.2-4.2-1.3-5.7.7-2.8-1.5-5.1-.5-7.6-.3-6.2.5-12.2,1-18.3,2.5s-1-1.1-.8-1.2l2.3-.6c1.7-1.4,4.4-1.6,6.6-1.8l13.2-.9,3-1c2.2.3,4.7,1.5,7.5-.3l-5.8-7c-6.5-7.9-11.2-17.3-15.2-25.6-14.7-30.7-25.2-65.8-30.9-104.2l-6.7-54.6-4.4-31.7-3.6-19-6.1-26.2c-8.6-37.4-15.9-73.9-10.2-114.3,4.6-32.5,19-63.6,50.8-76.6s59.2-3.5,85.8,8.9c22,10.3,40.9,19.2,65.4,10.2,9.8-3.6,18.7-8.1,28.3-12.5,27.9-12.9,63.2-17.7,90.5-2.6,38.9,21.4,46.2,73.8,43.4,115.8-1.9,30.1-8.9,58.6-19.8,86.5s-7,19.4-8.7,29.9l-1.9,28.1c-.7,56-7.3,109.8-30.1,160.8-4.7,10.6-10.1,20.1-16.9,28.9Z" style="fill: #f1e9e6;"/>
    <g>
      <path d="M314.9,508.7c-2.6-.7-5.4-1.1-8.3-1.1l-29.1-.7h-49.4s-29.4.7-29.4.7l-13.1.9c3.9-7.6,6.2-14.8,7-22.7l3.1-28.4c3.8-34.9,7.2-72.4,21.3-104.5,2.6-5.9,5.6-11.2,9.2-16.1s10.8-11.2,18.5-12.8c39.4-7.8,53.3,78,56.8,110.1l5,46.9c1.1,10,3.8,19.2,8.4,27.7Z" style="fill: #fff;"/>
      <g>
        <path d="M115.4,201.6l3.7,39c.9,9.3,1.4,25.5-4.3,27.5-6.2,2.2-14.1-14.4-17.1-23.1-14.3-41.4-24.4-100.5-8.6-143.3s29.7-39.4,56.6-37.7,23.7,5,34,9.5l13.1,5.7c1.6.7,5.4,2.4,4.5,4.9-1.2,3.5-6.8,3.3-10,3.3-23.1-.2-45.7-4.5-58.7,18.4s-16.1,66.1-13.3,95.9Z" style="fill: #fff;"/>
        <path d="M297.2,228c1.1,4-1.3,6.3-3.3,9.5-13.1,21.2-38.6,26.5-62.5,21.2l-4.1-2c.3-1.2-.8-1.9-2-2.3-7-2.5-13.6-6.7-19.8-10.9-1.3.5-1,2.5-.1,3.2-.5-.2-1.4-.3-1.8,0s-.6.8-.8,1.4c-.8-.7-1.3-.5-2.1-.1-8.4-5.6-14-14-20.6-21.4,4.3-2.4,13.8,3.3,22.3,2.6l18.1-1.6c12.5-1.1,22.8,12.4,41.8,5.3l10.8-4.1c.6-.2,2.3.3,2.8-.7h21.4Z" style="fill: #f27082;"/>
        <path d="M274.3,325.2c6.8,7.3,11.7,16.3,15.8,25.7l2.7,6.1c14.4,37.9,19.1,79.8,21.1,121.1.5,11.1.9,21.5,3,32.2l-2.1-1.6c-4.6-8.5-7.3-17.7-8.4-27.7l-5-46.9c-3.5-32.1-17.4-117.9-56.8-110.1.2-.3,0-1.5-.4-1.4l-1.9.4c-.7.2-3.6-2.8-3.1-4.6,12-5.8,25.9-3.1,35.1,6.7Z" style="fill: #be9697;"/>
        <path d="M272.6,309.8c-1.1.5-2-.2-2.4-.5-1.1.2-1.8.6-1.5,1.3-.9-.1-1.7-.8-1.7-1.3.9-1.1.5-1.5,0-2.4s-1.6-.1-2.3.2c-1-.9-1.6-.7-2.1-.6s-1.2-.2-1.3-1.5c-3.5,1.9-8.4-2.7-10.7,3.2,1.6,0,2.5-.4,3.8.3-1.1.8-3.5,1-4.3-.3s-3.2-.7-4.8-.3-4,0-6.2,1.3l-3,1.8c-.7.4-1.9,0-3.3-1.6-1.5,3.1-3.8,2.2-5.9,3-5.3,1.9-10,4.7-14.2,7.5s-2.1,3.3-3.5,3.7-2.2.3-2.5,1,.3,1.5,0,1.9l-5.2,6.1-5.2,7.9c-.1-1.4-.9-1.7-1.7-.6l-5.8,11c-.2.4,1.3.8,1.3,1.2,0,.6-.2,1.7-.6,3.1-.8-.8-3.4-.9-3.6,0l-1.1,6.3c-2.6,1.7-2.4,4.8-2.6,7.2l-.9,10.6-4.3,9.2c-1.5-1.3-2-.5-2.2-.1s0,2,.1,2.8c-2.6,1.7-5.2,4.7-4.7,8,.5.4.6.8.3,1.1s-.6.4-1.1.6c-1.3-5.7-1.5-11.2.6-17.2s.6-9,3.8-11.3c-1.3-3.9,2-6.9,3.2-10.2l3.6-10.4c.5,0,1.1.3,1.3,0l1.5-2,2.1-4.8,3.4-8.2c-1-.1-1.7-.2-2,0s-.9.3-1.1-.5,3.5-7.4,5.8-7.1,2.2-.4,3.8-2.1l5.5-5.9c1.6,0,2.3.6,4.2-.3-1.2-.8-1.8-1.8-1.2-2.7l1.5-2.3c2.8-1.8,5.1-4.2,6.3-7.1,3.7-1.8,6.3-3.8,10.2-3.4s9.1-3.6,13.3-4,3.4-.3,4.6-1.7c4.3.1,8-.6,11.6,1.2,4.5-.9,10.9-1,13.3,2.7s2.9,2.9,5.3,4.9c.5.3,1.8-.1,2.4,1.3Z" style="fill: #e4d6d4;"/>
        <path d="M307.9,221.1c-1.3.8-2.5,1.3-3.8,2.6l-29.7-1.7c-12.3-.7-19.1,10.1-33.5,4.2s-15.5-6-23.6-4.6l-17.4,3.2c-6.6,1.2-17.6.6-20.6-3.6,7.3.8,14.4-.5,21.6-3.3l16.5-6.3c6.6-2.5,13.7-1.5,19.7,2.2l11.8,7.4c3.6,2.2,11.3-8.2,22.6-10,12.8-2,25,8.8,36.5,9.8Z" style="fill: #f26f82;"/>
        <path d="M326.5,220l-.7-1.3c-2.7-4.8-.4-11.7,4.8-15.2,9.1-6.2,21.3-5.7,30.7.2s5.5,6.1,5.6,9.8-1.6,7.9-5.1,10.3c-12.2,8.4-30.1,5-35.2-3.9Z" style="fill: #f8b0ba;"/>
        <path d="M171.7,218.7c-.4,0-.8.2-.9.7-3.9,10.2-24.9,13.4-36.4,3s-3.9-6.2-3.6-9.6c1-10.5,19-17.4,32.8-11.4s10.8,10.4,8.2,17.4Z" style="fill: #f8bac2;"/>
        <path d="M345.1,182.5c-4.4,2.1-7-22.7-23.6-22.6s-18.1,20.2-20.6,20.7-1.9-.7-1.8-2.2c1.4-13.5,7.1-29.5,20.1-31.3s11.1,1.6,15.8,5.2c3.6-2.3,5.5-4.9,8-8,.4,4.8-2.9,7.9-6.4,10.4l3.9,4.6c4.3-1.2,7.1-4,10.6-7.3-.6,5.5-4.8,8.7-9.5,10,3.3,6.8,6.7,18.9,3.4,20.4Z" style="fill: #573b38;"/>
        <path d="M180,166.4c-4.6,7.6-3.5,17.3-7.9,16.5s-3.3-1.6-2.8-3.7l-3,1.6c1.5-14.8,8.5-34.4,22.9-34.1s20,19.1,20.6,33.5c-4.1,1.5-4.1-9.9-13-16.7-5.8-4.5-13.2-3.2-16.9,2.9Z" style="fill: #593c3a;"/>
        <path d="M315.8,226.6c-7.3,5.6-12.6,20-33.6,29.5-23.2,10.4-50.1,9.4-72.6-2.1-3.5-1.8-6.1-4-9-5.9.8-.4,1.4-.5,2.1.1.2-.7.5-1.2.8-1.4s1.3-.3,1.8,0c3,2.3,6.4,4,10,5.6.5-1.7,2.6-.7,1.1.6,3.7,1.9,7.1,3,10.8,3.7l4.1,2c23.9,5.3,49.4,0,62.5-21.2s4.3-5.4,3.3-9.5c1.8,0,3.6,0,5.6-.3l9.9-1.7c1.2-.2,2.1-.3,3.2.6Z" style="fill: #eb5f74;"/>
        <path d="M381.7,75.2c-17.7-17.4-36.4-18.6-59.9-12.6l-11.7,3c-.9.2-1.7-.4-2.1-1s0-1.5,1.1-2.1c12-6.3,25.4-9.4,39-8.7s25.9,6.8,35.5,16.4l7.1,5.8c1.9,1.5,3.6,5.3,1.3,7.3s-8.3-1.4-10.2-8.1Z" style="fill: #fff;"/>
        <path d="M314.9,221.7c0,.5,0,1.5-.2,1.9s-5.9,2.4-9.3,2.4l-27.3.7c-11.8.3-21.8,11.3-36.8,4.8-7.6-3.3-15.6-6-23.9-5.7-5.3.2-10.4-.9-16,.5s-1.9-1-1.6-1.5l17.4-3.2c8.1-1.5,16.1,1.5,23.6,4.6,14.4,5.9,21.2-4.9,33.5-4.2l29.7,1.7c1.3-1.3,2.5-1.8,3.8-2.6l7,.6Z" style="fill: #e7576e;"/>
        <path d="M179.3,221.3c3,4.2,14,4.8,20.6,3.6-.2.5.5,1.8,1.6,1.5,5.5-1.5,10.7-.3,16-.5,8.3-.3,16.3,2.4,23.9,5.7,15,6.5,25-4.5,36.8-4.8l27.3-.7c3.4,0,9.1-2.2,9.3-2.4.3-.4.2-1.4.2-1.9,3.8.3,8-.4,10.8-3.1l.7,1.3c-3.2,3-7.4,4.2-10.6,6.6-1-.9-1.9-.8-3.2-.6l-9.9,1.7c-2,.3-3.8.3-5.6.3h-21.4c-.5,1.1-2.2.6-2.8.8l-10.8,4.1c-19,7.1-29.3-6.4-41.8-5.3l-18.1,1.6c-8.4.8-18-5-22.3-2.6l-8.7-6.2c-.3-.2-.4-.6-.6-1.1.2-.4.5-.6.9-.7,2.2,1.5,4.9,2.2,7.6,2.5Z" style="fill: #ac2840;"/>
        <path d="M323.6,405.5c.2,2.3,2.3,5.2-.7,7.1-1.5-17.3-4.5-33.8-9.3-50.4-2.1-9.9-5.9-18.5-9-28.3,9.5,15,14.2,32.2,16.8,49.7l2.2,21.9Z" style="fill: #fff;"/>
        <path d="M239.3,318.4c-.5,1.8,2.4,4.7,3.1,4.6l1.9-.4c.4,0,.6,1.2.4,1.4-7.7,1.5-13.9,6.6-18.5,12.8,0-1.3.6-2.3,1-3-3.8-2.3-6.3-1-9.2,1.1,5-7.4,12.4-11.6,19.6-16.5.5-.6,1.1-.4,1.7,0Z" style="fill: #d2b7b7;"/>
        <path d="M292.8,357l-2.7-6.1c-4.1-9.4-9-18.4-15.8-25.7,1.3-.2,2.2.7,3.2,1.8l1.7-4.8c.4,3.1,1.3,5,4,5.7l7.5,14.1c1.2,2.3,1.5,4.7,2.7,6.9s2,2.5,1.8,4.6-1.1,2.5-2.3,3.6Z" style="fill: #e1d2d0;"/>
        <path d="M164.9,104.8c-10.7,7.7-15.4,17.6-18,16.2-6-3.2,14.7-23.6,18.9-19s.1,2-.9,2.8Z" style="fill: #593d37;"/>
        <path d="M336,522c-2.6,0-5.3,1.2-8.2.4s-12.5,1.5-22.6-1.2c1.2-.8,1.3-2.1,1.3-3.6,4.2.5,9.6.4,13.8-.4,6.6,3.7,13.3,4.8,20.9.5,0,3-2.6,4.3-5.2,4.3Z" style="fill: #b49193;"/>
        <path d="M363.3,119.9c-6.8-6.1-12.4-12.6-21.5-15.4,2.7-2.5,4.4-.7,6.9-.3,5.9,3.5,13,7.5,14.5,15.7Z" style="fill: #4e3432;"/>
        <path d="M341.9,77.7l-13.7.5c-1.2,0-.9-1.1.4-1.7,6.8-2,18.2-4.2,21.8-.4-2.7,1.5-5.2,1.4-8.5,1.6Z" style="fill: #fefffe;"/>
        <path d="M347.1,515.1c-.6.5-.9,1.2-1,2.5s-3,.7-3.5-.5c.7-1.2,3-2.6,4.5-2.1Z" style="fill: #e9dedc;"/>
        <path d="M168.6,405.8c-.6.6.3,2.3.3,2,0-.8,1.4-1.9,1.2.2s-2.7,1.4-2.5-.2.4-1.5,1.1-2Z" style="fill: #e4d5d3;"/>
        <path d="M166.1,523.7c-2.4.2-3.6.5-5.3-.9,2.1-.7,4-.1,5.3.9Z" style="fill: #e9dedc;"/>
        <path d="M275.6,310.5c-.2.8-1.6,2.6-1.9.4-1.3.8-2.1-.3-1.1-1,.8-.4,2.4.5,3,.7Z" style="fill: #e6dad7;"/>
        <path d="M198.6,526.2c.2-1.3,2.7-1.4,3.5-.4-1.6.1-1.6,1.2-1.8,1.4-.5.4-1.3-.7-1.7-1Z" style="fill: #e9dedc;"/>
        <path d="M168.6,405.8c.2-1.5-1.1-4.2.8-4.9.1,1.3.2,3.9-.8,4.9Z" style="fill: #e4d5d3;"/>
        <path d="M164.9,459.9c1.8-.8,2.5,0,3.5.5-.8.8-2.9.8-3.5-.5Z" style="fill: #e9dedc;"/>
        <path d="M347.8,521.4c-.3-.5.5-1,.8-1.3s1.5-.7,1.8.6c-.8,1.2-1.9.8-2.7.6Z" style="fill: #e9dedc;"/>
        <path d="M154.5,519.2c-.7.5-1,1.1-1.1,2.3-.8-.5-.8-1.2-.6-2,.3-1.2,1-.5,1.7-.3Z" style="fill: #e9dedc;"/>
        <path d="M185.1,338.3c.5,1.6-1.4,1.6-.9,0-.2-1.1,1.1-1.1.9,0Z" style="fill: #e4d5d3;"/>
        <path d="M163,421.5c0-.7-.2-1.2.2-2.5.8.3.8,1.3.6,2s-.3.6-.8.5Z" style="fill: #e9dedc;"/>
        <path d="M268.7,310.7c.8,0,.9,2,0,2.3-.4-1-.5-1.8,0-2.3Z" style="fill: #e6dad7;"/>
        <path d="M275.6,310.5l1.3.3c.2,0,.2.9-.1,1.2s-.6-.3-.9-.6l-.3-1Z" style="fill: #e6dad7;"/>
        <path d="M227.3,256.7c-3.7-.8-7.1-1.8-10.8-3.7,1.5-1.3-.7-2.3-1.1-.6-3.6-1.6-7-3.3-10-5.6s-1.2-2.7.1-3.2c6.3,4.2,12.9,8.4,19.8,10.9s2.3,1.1,2,2.3Z" style="fill: #f9bbc3;"/>
      </g>
    </g>
  </g>
</svg>